<svg xmlns:xlink="http://www.w3.org/1999/xlink" xmlns="http://www.w3.org/2000/svg" width="79" height="78" viewBox="0 0 79 78" fill="none">
<path fill-rule="evenodd" clip-rule="evenodd" d="M59.7624 37.3711C53.4163 41.7207 48.6545 41.0017 39.2956 38.4541C29.9366 35.9065 26.2162 35.2718 18.7487 35.8621C25.1749 32.1471 30.5419 32.1782 39.9008 34.7258C49.2598 37.2735 51.7386 38.2011 59.7624 37.3756V37.3711ZM57.4661 30.7047C51.832 34.5661 47.6042 33.9269 39.2911 31.6634C30.9825 29.3998 27.6759 28.8361 21.0494 29.3598C26.7547 26.0621 31.5209 26.0888 39.8296 28.3523C48.1383 30.6159 50.3412 31.4414 57.4661 30.7047ZM39.8741 14.9573C53.1537 14.9573 63.9857 25.7603 63.9857 39.0044C63.9857 52.2485 53.1537 63.0516 39.8741 63.0516C26.5945 63.0516 15.7625 52.2485 15.7625 39.0044C15.7625 25.7603 26.5945 14.9573 39.8741 14.9573ZM75.1159 22.3161L75.5831 23.4746L71.1952 25.2366L72.2098 27.7443L76.5978 25.9822L77.0606 27.1273L66.9674 31.184L66.5046 30.0389L71.1551 28.1704L70.1404 25.6627L65.4899 27.5312L65.0226 26.3728L75.1159 22.3161ZM58.5786 12.9245L60.1318 14.1407L61.6805 10.5367L58.5786 12.9245ZM57.6841 13.6658L59.6066 15.1748L58.3739 17.8245L59.3975 18.6279L63.8923 8.34858L63.4339 7.98907L54.471 14.7665L55.3967 15.4944L57.6841 13.6746V13.6658ZM50.181 12.8091L50.6705 11.7839C51.7519 12.2987 51.9299 11.9836 52.2592 11.2912L55.9708 3.54182L57.1056 4.0833L53.4875 11.6419C53.1315 12.3875 52.6954 12.889 52.1747 13.1465C51.7252 13.3462 51.2757 13.3329 50.8173 13.1154C50.6082 13.0133 50.3946 12.9157 50.181 12.8136V12.8091ZM48.4587 4.97098L44.1775 11.2335L42.9626 10.985L45.1655 0.359508L46.3804 0.608057L44.8807 7.85592L49.1485 1.64664L49.242 1.19836L50.4569 1.44691L48.254 12.0724L47.0391 11.8238L48.4587 4.97098ZM41.5074 9.84875L41.6631 12.0591L40.288 12.1567L40.1945 10.8651L35.2414 11.2158L34.4759 0.390577L35.7487 0.301809L36.4341 9.99522L39.4157 9.78662L38.7304 0.0932059L40.0432 0L40.7464 9.90645L41.5074 9.85319V9.84875ZM26.5767 3.77262L27.7249 7.01707L28.2989 6.81734C28.7173 6.67088 29.0154 6.47115 29.1935 6.21816C29.367 5.96518 29.4471 5.69887 29.4338 5.41482C29.4204 5.13076 29.3581 4.82895 29.2424 4.50939C29.0688 4.01673 28.8063 3.69273 28.4547 3.53738C28.1031 3.38204 27.6715 3.39536 27.1552 3.57289L26.5811 3.77262H26.5767ZM28.1476 8.21543L29.772 12.8136L28.5927 13.2308L24.9746 2.9959L27.3733 2.15261C27.8895 1.97064 28.6372 1.97064 29.1534 2.31239C29.4249 2.49437 29.6607 2.7296 29.8743 3.01809C30.088 3.30659 30.266 3.65278 30.4084 4.05224L30.5241 4.37624C30.8089 5.17958 30.8356 5.87641 30.6843 6.44896C30.5152 7.09252 29.7853 7.63844 28.8864 7.95357L28.1432 8.21543H28.1476ZM16.1853 8.13998L19.5631 5.74326L20.2172 6.662L17.8452 8.34414L19.9324 11.269L22.1709 9.68009L22.8296 10.6033L20.5911 12.1922L22.8385 15.3435L25.2461 13.6347L25.9047 14.5579L22.4913 16.9768L16.1853 8.1311V8.13998ZM3.24389 24.9037C3.35514 24.6507 3.50645 24.4333 3.69336 24.2602C3.88028 24.0871 4.11169 23.9362 4.39206 23.8119C4.90829 23.59 5.46012 23.4746 6.04756 23.4701C6.635 23.4657 7.22243 23.5278 7.80097 23.6521C8.14809 23.7276 8.43736 23.7986 8.67322 23.8651C8.90909 23.9362 9.1405 24.016 9.36302 24.1137L9.57663 24.2069C10.6491 24.6685 11.5125 25.2011 12.1622 25.8091C12.8609 26.4527 13.306 27.0874 13.5062 27.7132C13.5997 28.0283 13.6531 28.3213 13.6575 28.6009C13.6664 28.8761 13.6175 29.1291 13.5196 29.3554L13.4929 29.4131C13.1369 30.2342 12.3937 30.7446 11.2544 30.9443C10.6669 31.0509 10.0439 31.0553 9.38972 30.9621C8.69548 30.86 7.97453 30.6514 7.22688 30.3319L7.07112 30.2653C6.19887 29.8925 5.42007 29.422 4.73473 28.8539C4.04939 28.2902 3.55095 27.6688 3.24389 26.9853C2.93682 26.3018 2.91902 25.6494 3.18603 25.0236L3.23944 24.9037H3.24389ZM4.23185 25.3786L4.2096 25.4274C3.97373 25.9778 4.09834 26.5415 4.58342 27.1273C4.84598 27.4425 5.22426 27.7576 5.71824 28.0772C6.21222 28.4012 6.83526 28.7207 7.58291 29.0447C8.74888 29.5463 9.79024 29.817 10.7115 29.8614C11.6327 29.9058 12.1978 29.6439 12.4515 29.098C12.4916 29.0181 12.5138 28.9471 12.5316 28.8583C12.6607 28.2547 12.4115 27.6555 11.7484 27.0475C11.1209 26.4705 10.3065 25.9689 9.30071 25.5384L9.15385 25.4763C8.82008 25.3342 8.48186 25.2055 8.14364 25.0901C7.80097 24.9747 7.45385 24.8727 7.10228 24.7839C6.7507 24.6951 6.43028 24.6374 6.13657 24.6108C5.8473 24.5842 5.56693 24.593 5.29546 24.6285C4.77033 24.6996 4.41431 24.9525 4.2274 25.3831L4.23185 25.3786ZM0.773982 38.4452L0.880788 37.1936L5.34442 37.5664L1.05435 35.0987L1.15671 33.8737L6.02086 36.6521L12.0243 34.4595L11.9086 35.8443L6.90646 37.6996L11.7172 38.1034L11.6104 39.3506L0.769531 38.4408L0.773982 38.4452ZM15.3086 19.1738L8.26825 16.24L7.48055 17.2475L16.0696 23.9095L16.8217 22.942L11.1921 18.5746L18.4327 21.6326L18.4683 21.5883L13.7154 15.339L19.345 19.7064L20.0971 18.7388L11.508 12.0768L10.7204 13.0843L15.3041 19.1738H15.3086ZM63.5985 24.0693L68.792 17.9754L61.3823 21.0024L60.6925 20.0481L72.2632 15.5654L64.3595 25.1168L63.5985 24.0649V24.0693ZM71.7915 35.3028L71.9517 37.2646L75.6543 35.942L71.7871 35.3028H71.7915ZM70.6389 35.1519L70.8391 37.5842L68.0533 38.4851L68.1601 39.7767L78.7695 36.0618L78.7206 35.4848L67.6438 33.5452L67.7417 34.717L70.6389 35.1519ZM20.867 68.3155L22.5536 69.3407L23.6662 65.577L20.8714 68.3155H20.867ZM20.0659 69.1543L22.1531 70.4237L21.2408 73.1977L22.3489 73.8723L25.5932 63.1314L25.0992 62.8296L17.0041 70.6145L18.0099 71.227L20.0659 69.1499V69.1543ZM57.1679 69.3452L58.8679 68.3421L56.0598 65.5947L57.1679 69.3407V69.3452ZM57.5373 70.4459L59.6422 69.2031L61.6716 71.3114L62.7886 70.65L54.8048 62.7497L54.3064 63.0427L57.3949 73.8279L58.4095 73.2287L57.5373 70.4414V70.4459ZM12.1889 64.7426L13.1992 65.8255C13.8444 66.5179 14.917 65.7945 15.4376 65.2752C15.9895 64.7248 16.6971 63.9037 16.0073 63.1625L15.0238 62.1106L12.1889 64.7426ZM10.5156 64.6139L12.6874 66.9396C13.6486 67.9693 15.4732 66.8863 16.3099 66.0741C17.2489 65.1642 17.9966 63.6285 16.7727 62.3148L16.5324 62.0574L15.8604 61.3339L18.4905 58.8928L20.2039 60.7303L21.0316 59.9536L18.4816 57.224L10.5156 64.6183V64.6139ZM29.4471 65.2308L30.6487 65.5814L29.3181 70.1086L31.9215 70.8675L33.2521 66.3404L34.4403 66.6866L31.383 77.099L30.1948 76.7528L31.6055 71.9549L29.0021 71.196L27.5914 75.9939L26.3898 75.6432L29.4471 65.2308ZM68.6541 64.5828L62.2368 60.8945L66.2331 67.0993L68.6541 64.5784V64.5828ZM65.4276 67.9426L59.2373 57.9297L69.5441 63.6552L69.9268 63.2557L70.9726 64.9068L70.3585 65.5415L69.6687 65.1642L66.8739 68.0758L67.2923 68.7371L66.6781 69.3762L65.0271 68.3598L65.4276 67.9426ZM46.3226 73.3308L48.2495 72.9003L46.4249 69.4251L46.327 73.3308H46.3226ZM46.3359 74.4892L48.7213 73.9522L50.0029 76.5797L51.2713 76.2957L46.109 66.3315L45.5438 66.4602L45.1566 77.6671L46.3048 77.4097L46.3359 74.4892ZM36.9325 66.9795L38.1875 67.0239L38.0273 71.4889L40.2924 67.0993L41.5252 67.1437L38.9752 72.1236L41.4584 78L40.0655 77.9512L37.9694 73.0556L37.7958 77.8668L36.5409 77.8225L36.9325 66.9795Z" fill="black" style="fill:black;fill-opacity:1;"/>
</svg>