<svg xmlns:xlink="http://www.w3.org/1999/xlink" xmlns="http://www.w3.org/2000/svg" width="291" height="80" viewBox="0 0 291 80" fill="none">
<path fill-rule="evenodd" clip-rule="evenodd" d="M149.898 1.79399C147.773 2.49409 147.315 3.38562 148.463 4.63266L148.468 4.6436C147.48 5.49137 147.282 6.08208 147.536 7.31818H146.476V5.75391C146.476 5.28353 146.338 4.85691 145.775 4.87879C145.257 4.8952 145.13 5.30541 145.13 5.75391V7.33459H144.037C144.456 6.18053 143.987 5.3437 143.143 4.63813C144.285 3.39656 143.827 2.5105 141.703 1.79946C141.647 1.42207 141.592 1.04467 141.537 0.661809C141.487 0.278944 141.311 -0.010939 140.875 0.0164085C140.439 0.043756 140.301 0.360987 140.301 0.749321C140.305 1.01186 140.318 1.27439 140.331 1.53693C140.338 1.6682 140.345 1.79946 140.351 1.93073C138.529 2.1331 137.911 3.3528 138.883 4.69283C137.784 5.51325 137.332 6.53605 137.685 7.41663C138.077 8.39567 139.043 8.85511 140.389 8.6965V9.54974C140.035 9.54974 139.683 9.55097 139.335 9.5522C138.413 9.55545 137.507 9.55864 136.598 9.5388C136.101 9.52786 135.77 9.681 135.549 10.1186C134.931 11.3328 134.092 12.372 133.094 13.3073C132.856 13.5261 132.718 13.9253 132.68 14.259C132.633 14.6792 132.644 15.1047 132.654 15.5356C132.659 15.7216 132.663 15.9087 132.663 16.0967C132.62 16.1198 132.572 16.145 132.52 16.1719C132.389 16.2407 132.236 16.3204 132.089 16.403C131.957 16.4778 131.827 16.5628 131.698 16.6479C131.439 16.8181 131.181 16.9882 130.897 17.0758C129.883 17.3901 128.863 17.6878 127.843 17.9854C126.183 18.4698 124.524 18.9541 122.89 19.5097C121.267 20.0621 119.678 20.7841 118.188 21.6264C117.04 22.2735 116.215 23.3138 115.399 24.3433C115.214 24.5756 115.031 24.8073 114.844 25.0339C114.778 25.1159 114.651 25.198 114.551 25.198C114.238 25.2096 113.922 25.2075 113.593 25.2053C113.458 25.2043 113.322 25.2034 113.183 25.2034C113.183 25.0965 113.182 24.9992 113.181 24.9084C113.18 24.7438 113.179 24.6006 113.183 24.4596C113.194 24.0548 113.061 23.7595 112.614 23.7431C112.195 23.7267 111.93 23.9892 111.93 24.3775C111.931 24.5955 111.927 24.8142 111.922 25.0328C111.898 26.3284 111.873 27.6197 112.879 28.7148C113.177 29.0393 113.404 29.4259 113.642 29.831C113.758 30.0269 113.875 30.2271 114.005 30.4268H112.245C112.278 30.3776 112.311 30.3338 112.349 30.2846C112.278 30.2069 112.197 30.1046 112.115 30.0017C111.933 29.7715 111.747 29.5378 111.66 29.5681C111.41 29.6584 111.2 29.8671 110.991 30.0748C110.909 30.1564 110.828 30.2379 110.743 30.3119C110.777 30.3557 110.81 30.3994 110.843 30.4487H104.049C104.032 30.377 104.019 30.2999 104.005 30.222C103.94 29.848 103.87 29.4538 103.382 29.5353C103.165 29.573 102.979 29.7878 102.794 30.0019C102.711 30.098 102.628 30.194 102.543 30.2736C102.567 30.3118 102.594 30.3478 102.62 30.383C102.635 30.4033 102.65 30.4232 102.664 30.4432H95.8986C95.9372 30.3994 95.9758 30.3557 96.0145 30.3065C95.9403 30.2296 95.8624 30.1317 95.7845 30.0337C95.6073 29.811 95.4295 29.5874 95.2915 29.6064C95.0613 29.6412 94.856 29.8428 94.652 30.043C94.5675 30.1259 94.4832 30.2086 94.3975 30.2791C94.4168 30.3065 94.4348 30.3352 94.4527 30.3639C94.4706 30.3926 94.4886 30.4213 94.5079 30.4487H87.56C87.5932 30.4049 87.6318 30.3557 87.6649 30.3065L86.8868 29.5353C86.7052 29.7117 86.5281 29.8882 86.326 30.0897C86.215 30.2004 86.0963 30.3187 85.9652 30.4487H79.3264C79.3581 30.4038 79.3935 30.3589 79.4265 30.3171C79.4337 30.3079 79.4408 30.2989 79.4478 30.2901C79.3702 30.2115 79.2946 30.1171 79.2188 30.0223C79.0466 29.8069 78.8727 29.5897 78.6697 29.5517C78.1662 29.4669 78.096 29.8846 78.03 30.2782C78.0193 30.3418 78.0087 30.4049 77.9964 30.4651H71.0872C71.1037 30.4405 71.1217 30.4159 71.1396 30.3912C71.1575 30.3666 71.1755 30.342 71.192 30.3174C71.1113 30.2508 71.0296 30.1669 70.9477 30.0827C70.7606 29.8906 70.5722 29.6972 70.3918 29.7048C70.2042 29.7124 70.0245 29.9097 69.8436 30.1083C69.7638 30.1959 69.6837 30.2837 69.6027 30.3557C69.6303 30.3994 69.6579 30.4487 69.6855 30.487H62.7928C62.8267 30.4533 62.8574 30.4132 62.8873 30.3741C62.8963 30.3624 62.9053 30.3507 62.9142 30.3393C62.8389 30.2545 62.7673 30.1528 62.6958 30.0513C62.5368 29.8255 62.3782 29.6003 62.1802 29.5626C61.6669 29.4643 61.5784 29.8472 61.4904 30.2281C61.4659 30.3345 61.4414 30.4407 61.4076 30.5362H54.6695C54.6949 30.5038 54.7227 30.4738 54.7497 30.4446C54.7638 30.4294 54.7777 30.4144 54.7909 30.3994L53.9797 29.5954C53.6982 29.8798 53.4168 30.1643 53.0305 30.5526H46.502C46.4987 30.5044 46.4961 30.4555 46.4935 30.4064C46.4708 29.9715 46.4477 29.5298 45.8674 29.5298C45.329 29.5254 45.2741 29.9093 45.2201 30.2871C45.2065 30.3817 45.1931 30.4759 45.1721 30.5635H38.2573C38.2882 30.5291 38.3164 30.492 38.3438 30.4559C38.3555 30.4404 38.3671 30.4252 38.3787 30.4104C38.3019 30.3292 38.2193 30.2239 38.1366 30.1185C37.9519 29.8832 37.7667 29.6472 37.6447 29.6775C37.4042 29.7351 37.2019 29.9469 36.9994 30.1587C36.9138 30.2483 36.8282 30.3379 36.7397 30.4159C36.7839 30.4706 36.8225 30.5198 36.8611 30.569H29.974C29.9933 30.5417 30.0126 30.5129 30.0319 30.4842C30.0512 30.4555 30.0705 30.4268 30.0899 30.3994C30.012 30.3326 29.9315 30.2464 29.8511 30.1604C29.6751 29.972 29.4999 29.7845 29.3559 29.8033C29.1411 29.8337 28.9477 30.0173 28.7534 30.2017C28.668 30.2827 28.5825 30.3638 28.495 30.4323L28.5943 30.5635H22.7612V28.239C23.3351 28.1132 23.8263 27.8561 23.8153 27.2217C23.8042 26.5981 23.3848 26.1879 22.833 25.9254C22.818 25.9183 22.8031 25.9111 22.7881 25.9039C22.654 25.8394 22.5189 25.7744 22.3749 25.7449C21.9169 25.641 21.7789 25.3785 21.79 24.9135C21.8215 23.8237 21.8249 22.7311 21.8282 21.6397C21.8296 21.2029 21.8309 20.7663 21.8341 20.3301C21.8396 19.7066 21.5195 19.2909 20.9898 19.2307C20.4269 19.1706 19.9799 19.5042 19.8585 20.1223C19.8088 20.3793 19.8088 20.6528 19.8088 20.9153V24.7549C19.7565 24.738 19.7069 24.722 19.6593 24.7066C19.4455 24.6377 19.2739 24.5824 19.1024 24.5197C18.4905 24.2895 17.8781 24.0609 17.2658 23.8324C15.9729 23.3498 14.6808 22.8676 13.3962 22.3702C12.7837 22.1405 12.2208 22.146 11.6082 22.3812C9.41885 23.2261 7.22436 24.0634 5.03171 24.8999C4.00224 25.2927 2.97318 25.6854 1.94524 26.0785C1.71898 26.1715 1.49272 26.2754 1.28853 26.4067C0.902236 26.6693 0.681494 27.0302 0.802902 27.5061C0.929829 28.0038 1.30509 28.2281 1.79624 28.2882C1.93728 28.3061 2.0807 28.3123 2.23735 28.3191C2.31974 28.3226 2.4058 28.3263 2.4971 28.332V29.1086V39.0795C2.49158 43.9857 2.49158 48.8973 2.49158 53.8034C2.49158 55.2419 2.75095 55.4935 4.2244 55.5044C4.72935 55.5099 5.23292 55.5181 5.73649 55.5263C6.24006 55.5345 6.74362 55.5427 7.24857 55.5482C8.20869 55.5592 9.16859 55.5705 10.1283 55.5817C13.9236 55.6263 17.716 55.6708 21.5085 55.7013C21.8231 55.7068 22.2701 55.5919 22.4411 55.3677C22.7502 54.9739 23.0923 54.9575 23.5117 54.9575C30.8777 54.9493 38.2423 54.9383 45.6069 54.9274C52.9741 54.9165 60.3413 54.9055 67.7098 54.8973C83.2666 54.8809 98.8179 54.8809 114.375 54.8809C114.651 54.8809 114.932 54.9411 115.202 55.0176C115.37 55.0658 115.536 55.1338 115.703 55.2015C116.008 55.3259 116.312 55.4497 116.615 55.4497C121.89 55.4732 127.164 55.4725 132.439 55.4718C133.317 55.4717 134.196 55.4716 135.075 55.4716C135.097 55.4716 135.119 55.4715 135.141 55.4714C135.343 55.4704 135.558 55.4694 135.731 55.5482C136.023 55.6771 136.309 55.8196 136.595 55.9621C136.965 56.1458 137.333 56.3294 137.713 56.4835C139.087 57.0523 140.477 57.4242 142.012 57.3805C143.865 57.3264 145.721 57.3364 147.577 57.3465C148.54 57.3517 149.503 57.3568 150.466 57.3531C152.013 57.344 153.382 56.7338 154.741 56.1279C155.007 56.0095 155.272 55.8914 155.538 55.7779C155.565 55.7661 155.593 55.7543 155.62 55.7426C155.971 55.5925 156.28 55.4607 156.669 55.4607C162.778 55.4661 168.892 55.4661 175.001 55.4552C175.377 55.4552 175.846 55.4333 176.111 55.22C176.508 54.8973 176.905 54.87 177.358 54.87C184.347 54.8736 191.338 54.876 198.328 54.8785C212.305 54.8833 226.283 54.8882 240.258 54.9028C248.026 54.9073 255.793 54.9309 263.56 54.9544C265.114 54.9591 266.667 54.9639 268.221 54.9684C268.464 54.9684 268.817 55.0067 268.933 55.1653C269.308 55.663 269.794 55.7232 270.351 55.7177C273.251 55.6795 276.152 55.6439 279.054 55.6083C281.955 55.5728 284.857 55.5372 287.757 55.499C288.733 55.4825 289.109 55.1161 289.114 54.1644C289.118 53.1108 289.117 52.0548 289.115 50.998C289.115 50.4692 289.114 49.9403 289.114 49.4114C289.109 42.6019 289.103 35.7924 289.103 28.9828V28.332C289.217 28.3233 289.327 28.3229 289.43 28.3225C289.651 28.3217 289.841 28.321 289.981 28.239C290.29 28.053 290.687 27.7905 290.759 27.4897C290.824 27.2052 290.586 26.8101 290.399 26.5009L290.389 26.4833C290.289 26.3262 290.047 26.2293 289.847 26.1493L289.82 26.1387C289.202 25.9028 288.584 25.6665 287.965 25.4302C285.229 24.3846 282.494 23.3392 279.744 22.3265C279.341 22.1788 278.805 22.2226 278.375 22.3374C277.877 22.4711 277.396 22.6628 276.916 22.8542C276.689 22.9448 276.462 23.0353 276.234 23.1196L276.224 23.1233C274.77 23.6635 273.316 24.2038 271.786 24.7768V23.2399C271.784 22.9501 271.785 22.6608 271.786 22.372C271.788 21.6795 271.789 20.9898 271.758 20.3028C271.725 19.6027 271.256 19.1925 270.66 19.2307C270.075 19.2636 269.755 19.7011 269.761 20.3957C269.766 20.8387 269.765 21.2811 269.765 21.7231C269.764 22.6072 269.762 23.4896 269.81 24.3721C269.854 25.1761 269.727 25.7066 268.817 25.9254C268.21 26.0676 267.79 26.5763 267.779 27.2326C267.774 27.8671 268.259 28.1241 268.817 28.239V30.5909H262.995C263.028 30.5417 263.061 30.4924 263.094 30.4487C263.012 30.3776 262.93 30.2883 262.847 30.1991C262.664 29.9998 262.48 29.8012 262.305 29.8087C262.111 29.8162 261.924 29.9994 261.693 30.2257C261.583 30.3333 261.463 30.4507 261.328 30.5635H254.684C254.722 30.5088 254.767 30.4487 254.805 30.3885C254.726 30.3117 254.649 30.2196 254.572 30.1272C254.395 29.9168 254.218 29.7045 254.011 29.6665C253.494 29.5765 253.434 29.9911 253.376 30.3809C253.367 30.4412 253.359 30.5009 253.348 30.5581H246.395C246.39 30.5132 246.385 30.468 246.381 30.4229C246.336 29.9735 246.293 29.5353 245.716 29.5353C245.176 29.5353 245.136 29.9204 245.096 30.3097C245.087 30.3936 245.079 30.4776 245.065 30.5581H238.283C238.274 30.509 238.265 30.4585 238.257 30.4076C238.189 29.9921 238.115 29.5466 237.604 29.6392C237.397 29.6757 237.223 29.888 237.018 30.1375C236.916 30.2614 236.807 30.3945 236.682 30.5198H230.126C230.122 30.4906 230.118 30.4612 230.114 30.4315C230.053 29.9768 229.987 29.4815 229.459 29.579C229.249 29.6154 229.072 29.8361 228.864 30.0942C228.76 30.2237 228.648 30.3626 228.52 30.4924H221.893C221.906 30.4678 221.922 30.4445 221.937 30.4213C221.952 30.398 221.967 30.3748 221.981 30.3502C221.904 30.2817 221.824 30.1951 221.743 30.1082C221.555 29.9036 221.364 29.6966 221.197 29.7158C220.995 29.7343 220.81 29.927 220.597 30.1499C220.496 30.2551 220.389 30.367 220.27 30.4706H213.609C213.629 30.4459 213.647 30.4213 213.664 30.3967C213.682 30.3721 213.7 30.3475 213.72 30.3229C213.6 30.1966 213.481 30.069 213.361 29.9407C213.231 29.8024 213.101 29.6634 212.969 29.5243C212.766 29.7103 212.563 29.8989 212.314 30.1303C212.204 30.2324 212.086 30.3428 211.954 30.4651H205.387C205.396 30.4522 205.404 30.4397 205.413 30.4274C205.441 30.3873 205.467 30.3496 205.497 30.3119C205.418 30.2352 205.339 30.1413 205.26 30.0473C205.073 29.8265 204.886 29.6047 204.697 29.6009C204.518 29.6009 204.338 29.8229 204.159 30.045C204.079 30.1442 203.999 30.2435 203.919 30.3229C203.94 30.3545 203.964 30.3839 203.986 30.4124C203.999 30.4283 204.012 30.444 204.024 30.4596H197.076C197.095 30.4295 197.113 30.3994 197.131 30.3694C197.149 30.3393 197.167 30.3092 197.186 30.2791C197.098 30.2083 197.011 30.1236 196.925 30.0388C196.723 29.8419 196.521 29.6441 196.298 29.6173C196.161 29.6027 195.992 29.8111 195.786 30.0654C195.684 30.1909 195.574 30.3276 195.453 30.4541H188.908C188.894 30.3904 188.881 30.3234 188.868 30.2559C188.795 29.8658 188.718 29.4576 188.224 29.5462C188.011 29.5877 187.829 29.8064 187.648 30.0242C187.567 30.122 187.485 30.2196 187.402 30.301C187.43 30.3294 187.457 30.3602 187.484 30.3917C187.498 30.4087 187.513 30.426 187.529 30.4432H180.708C180.727 30.4159 180.745 30.3899 180.763 30.3639C180.781 30.3379 180.799 30.3119 180.818 30.2846C180.733 30.2053 180.645 30.1032 180.558 30.0016C180.369 29.7807 180.182 29.562 180.023 29.5845C179.823 29.6103 179.645 29.8196 179.437 30.0637C179.336 30.1822 179.228 30.3089 179.107 30.4268H177.606C177.74 30.2213 177.865 30.0198 177.986 29.8236C178.238 29.4141 178.476 29.0278 178.76 28.6766C179.46 27.8014 179.775 26.8388 179.687 25.734C179.667 25.4874 179.675 25.2367 179.684 24.9869C179.689 24.8267 179.694 24.6669 179.692 24.5088C179.681 24.0658 179.477 23.7431 178.991 23.7595C178.506 23.7704 178.401 24.115 178.429 24.5307C178.436 24.6694 178.434 24.8059 178.431 24.9566C178.43 25.0376 178.429 25.1226 178.429 25.2144C178.279 25.2144 178.138 25.2153 178.003 25.2163C177.683 25.2185 177.396 25.2204 177.11 25.2089C176.994 25.2034 176.85 25.1651 176.784 25.0886C176.618 24.8945 176.457 24.6948 176.297 24.4953C176.006 24.1327 175.715 23.7704 175.388 23.4423C175.259 23.3125 175.131 23.1796 175.003 23.0462C174.46 22.4822 173.908 21.9094 173.252 21.5334C171.922 20.7786 170.509 20.1113 169.058 19.6245C167.283 19.0273 165.481 18.4986 163.68 17.9701C162.743 17.6952 161.807 17.4204 160.874 17.1359C160.471 17.0156 160.085 16.8296 159.715 16.6218C159.522 16.515 159.346 16.3736 159.155 16.2191C159.061 16.1441 158.964 16.066 158.86 15.9873C158.866 15.8764 158.871 15.7581 158.877 15.6346C158.891 15.3197 158.907 14.9712 158.943 14.6254C159.009 13.9855 158.782 13.5151 158.308 13.0612C158.235 12.9915 158.162 12.9216 158.087 12.8511C157.578 12.3686 157.043 11.8624 156.774 11.2562C156.134 9.82868 155.173 9.30361 153.639 9.52786C153.09 9.60718 152.526 9.58738 151.96 9.56753C151.706 9.55864 151.453 9.54974 151.2 9.54974V8.69103C152.552 8.86058 153.523 8.39567 153.915 7.41663C154.263 6.53605 153.816 5.52419 152.712 4.68736C153.7 3.34733 153.181 2.34641 151.239 1.88151C151.245 1.76653 151.257 1.6502 151.27 1.53368C151.3 1.24556 151.331 0.956302 151.272 0.683687C151.233 0.504691 151.074 0.352214 150.916 0.200405C150.847 0.134191 150.779 0.0681045 150.72 0C150.651 0.0651612 150.571 0.125786 150.492 0.186256C150.324 0.313589 150.158 0.440237 150.091 0.607114C149.989 0.866587 149.962 1.15622 149.936 1.44302C149.925 1.56126 149.914 1.67903 149.898 1.79399ZM114.916 52.8845H22.7833V50.3358H114.916V52.8845ZM176.674 50.3248H268.806V52.8955H176.674V50.3248ZM272.663 49.2747V38.5381L272.658 38.5326H285.373V49.4114H282.332C282.328 49.3205 282.322 49.234 282.317 49.1501C282.307 49.0069 282.299 48.8711 282.299 48.7332C282.288 45.982 282.288 43.2309 282.288 40.4797C282.288 39.7359 282.183 39.6538 281.432 39.6484C280.281 39.6411 279.129 39.6192 277.978 39.5973C277.402 39.5864 276.826 39.5754 276.25 39.5663C275.307 39.5554 275.141 39.7195 275.141 40.6602C275.133 42.0094 275.126 43.3587 275.119 44.7079C275.112 46.0497 275.105 47.3914 275.097 48.7332C275.097 48.8609 275.09 48.9852 275.082 49.1372C275.08 49.1805 275.077 49.2261 275.075 49.2747H272.663ZM9.29595 49.395H6.19453V38.5381H18.9148V49.2692H16.4866V48.6074C16.4756 45.8945 16.4646 43.1817 16.448 40.4743C16.448 39.7851 16.2328 39.5608 15.5209 39.5663C14.3982 39.5762 13.2756 39.5919 12.153 39.6077C11.4048 39.6182 10.6567 39.6287 9.90851 39.6374C9.36769 39.6429 9.29595 39.982 9.29595 40.425C9.30331 42.2484 9.30086 44.0693 9.2984 45.8895C9.29718 46.7992 9.29595 47.7088 9.29595 48.6183V49.395ZM197.009 31.7559H204.029V38.1497H197.009V31.7559ZM87.5821 31.7668H94.5796V38.1552H87.5821V31.7668ZM54.6584 31.7996H61.4683V38.2372H54.6584V31.7996ZM236.942 38.2427H230.121V31.7778H236.942V38.2427ZM71.1092 31.7723H78.0185V38.1935H71.1092V31.7723ZM205.304 31.7668H212.268V38.188H205.304V31.7668ZM261.61 38.2591H254.656V31.8817H261.61V38.2591ZM253.326 38.2646H246.356V31.8543H253.326V38.2646ZM86.2908 38.1661H79.3429V31.7723H86.2908V38.1661ZM45.2052 38.2591H38.2518V31.8434H45.2052V38.2591ZM36.9218 38.2646H29.9629V31.8926H36.9218V38.2646ZM69.7517 38.1989H62.7762V31.7887H69.7517V38.1989ZM228.802 38.2154H221.815V31.7778H228.802V38.2154ZM220.513 38.1716H213.565V31.7832H220.513V38.1716ZM104.072 31.7231H110.975V38.1552H104.072V31.7231ZM187.529 38.1552H180.608V31.7231H187.529V38.1552ZM238.261 31.7996H245.065V38.2591H238.261V31.7996ZM53.323 38.2482H46.5407V31.8106H53.323V38.2482ZM195.702 38.1442H188.831V31.7395H195.702V38.1442ZM95.9151 31.7504H102.753V38.1771H95.9151V31.7504ZM6.28282 30.744H18.9203L18.9093 30.7495V36.569C18.7191 36.569 18.5304 36.5701 18.3427 36.5711C17.7844 36.5742 17.236 36.5772 16.6908 36.5526C16.5584 36.5472 16.3431 36.3174 16.3321 36.1752C16.2769 35.59 16.2769 34.9993 16.2769 34.4141C16.2795 34.0877 16.2933 33.7601 16.307 33.4324C16.3223 33.0682 16.3376 32.7039 16.3376 32.3411C16.3321 31.5371 15.863 31.1159 15.0463 31.1159C14.8201 31.1159 14.5938 31.1269 14.3676 31.1378L14.3675 31.1378C13.617 31.1761 13.2362 31.5426 13.2252 32.2919C13.2178 33.0795 13.2203 33.8671 13.2227 34.6547C13.2239 35.0485 13.2252 35.4423 13.2252 35.8361V36.4159C12.7009 36.6565 12.5795 36.3229 12.5629 35.9838C12.5412 35.557 12.5571 35.1201 12.573 34.6863C12.5773 34.5697 12.5815 34.4534 12.585 34.3375C12.5909 34.0972 12.6004 33.8569 12.6098 33.6167C12.6268 33.1842 12.6437 32.7517 12.6402 32.3192C12.6347 31.548 12.1711 31.1214 11.393 31.1159C11.3102 31.1159 11.2288 31.1201 11.1474 31.1242C11.066 31.1283 10.9846 31.1324 10.9019 31.1324C9.83125 31.1597 9.52221 31.4715 9.52221 32.549V36.4432H6.28282V30.744ZM285.306 30.7495V36.4542L285.295 36.4596H282.061V32.5326C282.061 31.384 281.719 31.1214 280.229 31.1214C279.357 31.1214 278.927 31.5809 278.943 32.538C278.951 33.0063 278.968 33.4757 278.986 33.9452C279.009 34.5559 279.032 35.1668 279.032 35.776C279.032 35.7919 279.032 35.8082 279.033 35.8246C279.04 36.1695 279.049 36.611 278.364 36.4596C278.364 36.1991 278.364 35.9382 278.364 35.6769C278.365 34.627 278.366 33.5716 278.353 32.5161C278.353 32.2208 278.303 31.8981 278.182 31.6356C277.9 31.0394 276.929 31.0503 276.085 31.1761C275.522 31.2582 275.229 31.734 275.24 32.4286C275.249 32.9594 275.268 33.4887 275.287 34.0181C275.307 34.5471 275.326 35.076 275.334 35.6064C275.351 36.5089 275.274 36.58 274.374 36.58H272.685V30.7495H285.306ZM174.593 53.426H155.924V51.4734H174.593V53.426ZM135.671 53.426H116.99V51.4843H135.671V53.426ZM268.811 38.2755H262.945V31.8817H268.811V38.2755ZM28.6385 38.2646H22.7888V31.8762H28.6385V38.2646ZM6.14486 51.4242H18.9369V53.5901H6.14486V51.4242ZM285.439 53.5956H272.636V51.4023H285.439V53.5956ZM4.54448 28.2828H20.7194V29.6939H4.54448V28.2828ZM287.05 29.6884H270.881V28.2554H287.05V29.6884ZM125.075 31.012V47.9839H123.822V31.1159C124.22 31.0831 124.617 31.0503 125.075 31.012ZM166.508 47.9675V31.0175C166.955 31.0503 167.342 31.0777 167.772 31.1105V47.9675H166.508ZM122.481 31.1542V48.0222H121.223C121.22 47.9667 121.217 47.9112 121.214 47.8558C121.205 47.6928 121.196 47.5305 121.196 47.3713C121.206 45.8296 121.217 44.2879 121.228 42.7464C121.255 39.1526 121.282 35.5595 121.289 31.9692C121.289 31.3587 121.596 31.3309 121.938 31.3C122.123 31.2833 122.319 31.2656 122.481 31.1542ZM170.399 47.2564V48.0222H169.091V31.28H169.488C170.118 31.2855 170.311 31.5644 170.311 32.2208C170.311 35.8044 170.339 39.3852 170.367 42.9652C170.378 44.3957 170.39 45.8261 170.399 47.2564ZM94.7176 48.2312V48.2355H91.5003V41.9073C91.7086 41.9073 91.9188 41.9067 92.1304 41.9062C92.8774 41.9043 93.6419 41.9024 94.4031 41.9237C94.5134 41.9237 94.7066 42.137 94.7066 42.2518C94.7176 44.2195 94.7176 46.1872 94.7176 48.2312ZM200.127 41.9073V48.2355H196.91C196.904 48.181 196.897 48.1271 196.889 48.0737C196.875 47.9716 196.86 47.8711 196.86 47.7706C196.86 47.1059 196.863 46.442 196.865 45.7783C196.869 44.6725 196.873 43.5671 196.866 42.4597C196.866 42.0495 196.976 41.8854 197.418 41.9018C198.042 41.9171 198.67 41.9137 199.304 41.9102C199.577 41.9088 199.851 41.9073 200.127 41.9073ZM249.507 48.312H246.301V42.0276H249.507V48.312ZM42.1203 42.044H45.2824V48.3449H42.1203V42.044ZM205.216 41.9455H208.273V48.2847H205.216V41.9455ZM83.2997 41.9674H86.368V48.2792H83.2997V41.9674ZM188.688 41.9455H191.811V48.2136H188.688V41.9455ZM102.874 48.1917H99.7726V41.9401H102.874V48.1917ZM66.7993 42.0167H69.8841V48.2956H66.7993V42.0167ZM224.806 48.2902H221.705V42.0002H224.806V48.2902ZM82.3726 48.2792H79.3429V41.962H82.3726V48.2792ZM212.246 48.2738H209.222V41.9455H212.246V48.2738ZM108.034 41.9401H111.053V48.2026H108.034V41.9401ZM180.537 41.9346H183.566V48.1972H180.537V41.9346ZM62.7983 42.0276H65.8666V48.3066H62.7983V42.0276ZM228.813 48.3011H225.717V42.0167H228.813V48.3011ZM262.962 42.0385H265.947V48.3996H262.962V42.0385ZM25.6585 42.0385H28.6274V48.3886H25.6585V42.0385ZM36.966 48.3449H33.9418V42.0276H36.966V48.3449ZM254.623 42.0331H257.68V48.3503H254.623V42.0331ZM29.9795 42.044H32.9761V48.3613H29.9795V42.044ZM258.591 42.0549H261.632V48.3503H258.591V42.0549ZM236.914 48.2902H233.94V42.0057H236.914V48.2902ZM54.675 42.0331H57.6329V48.3175H54.675V42.0331ZM213.582 41.9784H216.518V48.2847H213.582V41.9784ZM75.0826 41.9893H78.024V48.2902H75.0826V41.9893ZM217.428 41.9893H220.419V48.3011H217.428V41.9893ZM71.2086 42.0057H74.172V48.2902H71.2086V42.0057ZM38.2573 42.0495H41.1601V48.3339H38.2573V42.0495ZM253.326 48.323H250.407V42.044H253.326V48.323ZM49.4876 48.323H46.6014V42.0167H49.4876V48.323ZM242.107 42.044H245.015V48.3175H242.107V42.044ZM230.132 42.0167H233.001V48.312H230.132V42.0167ZM58.5932 42.0221H61.4794V48.312H58.5932V42.0221ZM53.3561 48.3011H50.4478V42.0167H53.3561V48.3011ZM238.239 42.044H241.152V48.323H238.239V42.044ZM184.51 41.9455H187.407V48.2136H184.51V41.9455ZM104.215 41.9346H107.096V48.1862H104.215V41.9346ZM203.902 48.2519H201.044V41.9455H203.902V48.2519ZM87.6925 41.962H90.5511V48.2355H87.6925V41.962ZM192.782 41.9784H195.613V48.2026H192.782V41.9784ZM98.8069 48.2136H96.0034V41.9346H98.8069V48.2136ZM172.64 47.251V48.055H172.634H171.63V31.9254C172.321 32.0676 172.667 32.4742 172.667 33.1451C172.662 35.4996 172.657 37.8554 172.653 40.2119C172.649 42.5578 172.645 44.9044 172.64 47.251ZM119.982 31.9254V48.0495H118.955V47.3549C118.95 44.9832 118.945 42.6128 118.941 40.2432C118.937 37.8694 118.933 35.4963 118.927 33.1233C118.922 32.1333 118.944 32.1114 119.982 31.9254ZM126.4 47.9456V31.105C126.571 31.1242 126.727 31.1433 126.882 31.1624C127.038 31.1816 127.194 31.2007 127.365 31.2199V47.9456H126.4ZM165.184 31.0886V47.9456H164.213V31.2472C164.28 31.2362 164.345 31.2253 164.41 31.2146C164.664 31.1724 164.907 31.1322 165.184 31.0886ZM176.784 31.6793H179.339V38.1607H176.784V31.6793ZM112.278 31.6957H114.816V38.1607H112.278V31.6957ZM179.251 48.1589H176.707V41.9401H179.251V48.1589ZM114.888 48.1972H112.36V41.9346H114.888V48.1972ZM162.692 31.6753C162.782 31.6563 162.874 31.6366 162.966 31.6082V47.9346H161.934V47.2455C161.942 46.008 161.951 44.7705 161.96 43.5331C161.988 39.8206 162.016 36.1082 162.016 32.3958C162.021 31.818 162.333 31.7517 162.692 31.6753ZM128.635 47.9237V31.6301C129.291 31.6902 129.584 31.8981 129.584 32.6091C129.58 36.3387 129.608 40.0715 129.636 43.8026C129.645 44.9194 129.653 46.0361 129.661 47.1525V47.9237H128.635ZM147.293 47.4533H150.013V52.7095H147.293V47.4533ZM141.609 47.4588H144.318V52.715H141.609V47.4588ZM276.112 43.5372H278.265V49.3184H276.112V43.5372ZM14.9406 43.4936C15.1131 43.4908 15.2924 43.4879 15.4822 43.4879L15.4767 43.4934V49.302H13.2693V48.4816C13.2715 48.1876 13.2742 47.8939 13.2768 47.6003C13.2874 46.4298 13.298 45.2614 13.2803 44.0896C13.2748 43.6028 13.4404 43.4442 13.9205 43.4825C14.2523 43.5046 14.5815 43.4994 14.9406 43.4936ZM266.902 42.044H268.817V48.405H266.902V42.044ZM24.6706 48.3996H22.7778V42.0495H24.6706V48.3996ZM117.636 32.9373V48.0604H116.974C116.968 47.9894 116.961 47.9183 116.954 47.8472C116.939 47.7049 116.924 47.5627 116.924 47.4205C116.919 46.306 116.914 45.1917 116.909 44.0778C116.895 40.731 116.88 37.3866 116.847 34.0421C116.842 33.5453 117.125 33.3292 117.487 33.0525C117.535 33.0154 117.585 32.9773 117.636 32.9373ZM173.931 48.0604V32.9646C173.972 32.9923 174.014 33.019 174.054 33.0452C174.435 33.2934 174.742 33.4932 174.742 33.9929C174.717 37.3846 174.702 40.7764 174.686 44.1658C174.681 45.2966 174.676 46.4271 174.67 47.5572C174.67 47.6562 174.659 47.7574 174.646 47.8684C174.639 47.9291 174.632 47.9927 174.626 48.0604H173.931ZM116.891 29.5626H131.184V29.5681V31.1706C126.289 29.043 121.56 29.4696 116.891 31.8653V29.5626ZM174.72 31.8598C170.068 29.4915 165.344 29.0157 160.41 31.1761V29.5407H174.72V31.8598ZM279.313 43.5317H281.294V49.3786H279.313V43.5317ZM12.3036 49.3677H10.3224V43.5262H12.3036V49.3677ZM150.036 46.5016H147.287V42.7113H150.036V46.5016ZM144.302 46.5235H141.581V42.7058H144.302V46.5235ZM147.287 38.0896H150.058V41.7815H147.287V38.0896ZM141.531 38.1005H144.296V41.776H141.531V38.1005ZM145.541 38.2392C145.544 38.1998 145.546 38.1608 145.549 38.1224L145.538 38.1169C146.063 37.9257 146.063 38.2296 146.062 38.5479L146.062 38.5763V44.199C146.057 47.6353 146.057 51.0662 146.057 54.497V54.5254C146.057 54.5684 146.058 54.6115 146.058 54.6544C146.061 54.7969 146.064 54.9378 146.035 55.0723C146.018 55.1598 145.88 55.2747 145.797 55.2747C145.715 55.2747 145.582 55.1653 145.555 55.0778C145.521 54.9834 145.526 54.8735 145.53 54.7645C145.531 54.7283 145.532 54.6921 145.532 54.6567C145.521 49.3184 145.521 43.9857 145.521 38.6474C145.521 38.5121 145.531 38.3735 145.541 38.2392ZM228.807 40.7094H221.749V39.4897H228.807V40.7094ZM69.9062 40.7094H62.7873V39.4952H69.84C69.8621 39.8781 69.8841 40.2719 69.9062 40.7094ZM205.271 39.4897H212.257V40.704H205.271V39.4897ZM86.3129 40.693H79.3264V39.4843H86.3129V40.693ZM135.682 47.869H134.837C134.871 45.8918 134.902 43.9255 134.934 41.9592C134.966 39.9929 134.998 38.0266 135.031 36.0494C135.472 36.1916 135.737 36.3667 135.737 36.8863C135.715 40.3734 135.715 43.8605 135.715 47.3422V47.3494C135.715 47.4446 135.707 47.5398 135.698 47.6445C135.692 47.7142 135.686 47.7881 135.682 47.869ZM155.858 36.9847C155.852 36.4651 156.029 36.1971 156.564 36.0549C156.598 38.0609 156.63 40.0611 156.662 42.063C156.693 43.9965 156.725 45.9315 156.757 47.8745H155.88V47.1963C155.878 46.1754 155.878 45.1541 155.878 44.1326C155.877 41.7498 155.877 39.3659 155.858 36.9847ZM213.607 40.6711C213.597 40.6621 213.585 40.6511 213.571 40.6383L213.576 40.6329V39.4897H220.524C220.524 39.5769 220.527 39.6649 220.529 39.7533C220.536 39.9756 220.543 40.2004 220.507 40.4196C220.485 40.5399 220.292 40.7313 220.182 40.7313C218.002 40.7368 215.828 40.7204 213.653 40.704C213.642 40.704 213.63 40.693 213.607 40.6711ZM71.1901 39.4788C71.1908 39.477 71.1914 39.4752 71.192 39.4733L71.1865 39.4788H71.1901ZM71.1901 39.4788C70.8339 40.5134 70.9952 40.7532 72.0308 40.7532H77.3287H78.0019V39.4788H71.1901ZM19.9799 38.5927H20.7083V49.2692H19.9799V38.5927ZM61.4628 40.7149H54.6529V39.5116H61.4628V40.7149ZM271.62 49.2692H270.886V38.5927H271.62V49.2692ZM230.137 39.5007H236.942V40.7094H230.137V39.5007ZM203.952 40.6766H196.954V39.4843H203.952V40.6766ZM87.6318 39.4788H94.6404V40.6657H87.6318V39.4788ZM157.867 40.3383C157.83 37.7801 157.792 35.2214 157.756 32.6529C158.186 32.7568 158.429 32.8935 158.429 33.3475C158.436 36.2086 158.448 39.0697 158.461 41.9308C158.469 43.8391 158.478 45.7474 158.484 47.6557C158.484 47.7206 158.471 47.7822 158.454 47.8565C158.45 47.8761 158.445 47.8966 158.44 47.9182H157.977C157.941 45.3864 157.904 42.8627 157.867 40.3383ZM133.165 33.4952C133.165 33.0467 133.265 32.7459 133.839 32.6748C133.798 35.3467 133.759 38.0095 133.72 40.6776C133.684 43.0834 133.649 45.4934 133.612 47.9182C133.553 47.9261 133.451 47.9339 133.322 47.9438C133.272 47.9477 133.217 47.9519 133.16 47.9565C133.153 47.9033 133.146 47.8534 133.14 47.8061C133.124 47.6931 133.11 47.5951 133.11 47.5026C133.132 42.8371 133.154 38.1661 133.165 33.4952ZM45.2769 40.7149H38.2573V39.5718H45.2769V40.7149ZM246.329 39.5554H253.337V40.7258H246.329V39.5554ZM195.657 40.6438H188.759V39.4679H195.657V40.6438ZM261.615 40.7149H254.64V39.5991H261.615V40.7149ZM29.985 39.5882H36.9439V40.7258H29.985V39.5882ZM102.83 40.6493H95.9207V39.4624H102.83V40.6493ZM53.3395 40.7258H46.5351V39.5444H53.3395V40.7258ZM238.25 39.5444H245.06V40.7149H238.25V39.5444ZM187.435 40.6329H180.575V39.4788H187.435V40.6329ZM111.003 40.6219H104.138V39.4679H111.003V40.6219ZM5.18463 49.4223H4.52241V38.5162H5.18463V49.4223ZM286.427 49.4661V38.5052H287.061V49.4223C286.972 49.4277 286.879 49.4344 286.778 49.4418C286.673 49.4494 286.558 49.4578 286.427 49.4661ZM140.308 51.7458C140.307 51.9675 140.306 52.1951 140.306 52.4306C140.065 52.3291 139.826 52.2292 139.59 52.1303C138.756 51.7813 137.951 51.4442 137.155 51.0905C137.05 51.0468 136.973 50.8335 136.968 50.6967C136.951 50.3076 136.953 49.9154 136.955 49.4779C136.956 49.3251 136.957 49.1668 136.957 49.0012C137.091 49.037 137.223 49.0725 137.355 49.1078C138.312 49.3633 139.222 49.6065 140.124 49.8708C140.213 49.8927 140.301 50.0896 140.301 50.21C140.313 50.7089 140.31 51.2105 140.308 51.7458ZM153.659 49.2632C153.966 49.1806 154.276 49.0973 154.588 49.0121V49.0067C154.702 50.3157 154.2 51.2054 153.082 51.6758C152.519 51.9164 151.956 52.1516 151.294 52.4251C151.294 52.2191 151.293 52.0181 151.292 51.8206C151.29 51.2422 151.288 50.6948 151.305 50.1443C151.305 50.0404 151.437 49.8818 151.537 49.849C152.236 49.6459 152.941 49.4563 153.659 49.2632ZM169.604 24.9682C168.683 23.8634 167.772 22.7531 166.878 21.6592V21.6537C168.429 21.342 171.205 23.2618 171.751 25.1159C171.572 25.1159 171.394 25.1168 171.218 25.1177C170.781 25.1199 170.351 25.1221 169.919 25.1104C169.814 25.105 169.671 25.0503 169.604 24.9682ZM120.308 25.1153C120.157 25.1183 120.002 25.1213 119.844 25.1214C120.39 23.3219 123.006 21.4842 124.888 21.6264C124.779 21.7398 124.675 21.844 124.577 21.9434C124.39 22.1317 124.221 22.3025 124.065 22.4851C123.998 22.5634 123.93 22.6416 123.863 22.7198C123.317 23.352 122.772 23.9836 122.266 24.6455C122.007 24.9846 121.747 25.1706 121.3 25.1323C120.979 25.102 120.653 25.1085 120.308 25.1153ZM268.811 40.7258H262.94V39.5554H268.811V40.7258ZM22.7943 39.5554H28.6605V40.7641H22.7943V39.5554ZM153.799 46.118C154.053 46.017 154.309 45.9152 154.566 45.8125C154.58 45.8638 154.59 45.902 154.599 45.9315C154.614 45.9868 154.621 46.0118 154.621 46.0367C154.618 46.2387 154.637 46.4556 154.655 46.6728C154.697 47.1731 154.74 47.6744 154.517 47.9948C154.312 48.2909 153.805 48.39 153.305 48.4877C153.103 48.5272 152.902 48.5664 152.723 48.6183C152.379 48.719 152.031 48.8126 151.626 48.9217C151.524 48.9489 151.42 48.9771 151.31 49.0067C151.31 48.8788 151.31 48.7534 151.31 48.63C151.309 48.1464 151.308 47.6932 151.321 47.24C151.327 47.1689 151.432 47.065 151.515 47.0322C152.267 46.7275 153.025 46.4259 153.799 46.118ZM136.961 46.3494C136.961 46.1688 136.962 45.9831 136.962 45.7906L136.957 45.7851C137.272 45.9114 137.58 46.0336 137.882 46.1536C138.628 46.4495 139.342 46.7326 140.053 47.0322C140.163 47.0814 140.273 47.2728 140.279 47.4041C140.299 47.77 140.296 48.1359 140.292 48.5324C140.291 48.687 140.29 48.8464 140.29 49.0121C139.96 48.9218 139.635 48.8346 139.314 48.7485C138.605 48.5583 137.915 48.3731 137.227 48.1698C137.117 48.137 136.973 47.951 136.973 47.8307C136.957 47.3512 136.959 46.8716 136.961 46.3494ZM165.346 25.094C165.347 25.0959 165.348 25.0977 165.35 25.0995V25.094C165.348 25.094 165.347 25.094 165.346 25.094ZM162.469 21.7194C163.758 22.495 164.525 23.7397 165.346 25.094C165.124 25.0941 164.915 25.0976 164.715 25.101C164.256 25.1087 163.847 25.1157 163.44 25.0776C163.247 25.0612 163.021 24.837 162.905 24.651C162.399 23.8366 161.912 23.0144 161.373 22.103C161.271 21.9311 161.168 21.756 161.062 21.5772C161.237 21.5915 161.411 21.5894 161.579 21.5874C161.924 21.5833 162.239 21.5795 162.469 21.7194ZM126.826 25.1021C126.642 25.1008 126.45 25.0995 126.245 25.0995C127.001 23.8032 127.757 22.682 128.855 21.8834C129.121 21.6905 129.494 21.641 129.866 21.5916C130.043 21.5682 130.219 21.5447 130.384 21.5061C130.406 21.5458 130.425 21.5855 130.446 21.6269C130.456 21.6481 130.467 21.6697 130.478 21.692C130.405 21.8115 130.332 21.9311 130.259 22.0508C129.68 22.9986 129.101 23.9489 128.508 24.8862C128.436 24.9956 128.243 25.0886 128.099 25.0886C127.693 25.1081 127.286 25.1053 126.826 25.1021ZM166.183 24.8424C165.454 23.7923 164.743 22.7312 164.003 21.6264V21.6209C164.621 21.5334 165.228 21.5607 165.758 22.0147C166.795 22.9008 167.805 23.8142 168.594 25.105C168.401 25.105 168.216 25.1057 168.035 25.1064C167.514 25.1084 167.038 25.1103 166.558 25.094C166.426 25.0886 166.266 24.9628 166.183 24.8424ZM125.566 22.2335C126.129 21.692 126.802 21.4404 127.691 21.6537L127.685 21.6592C127.261 22.1843 126.869 22.6711 126.482 23.1633C126.306 23.3876 126.129 23.6118 125.975 23.8525C125.889 23.983 125.813 24.1404 125.737 24.2971C125.577 24.6262 125.419 24.9525 125.18 25.0229C124.74 25.1645 124.249 25.1374 123.721 25.1084C123.494 25.0959 123.261 25.0831 123.022 25.0831C123.095 24.9716 123.161 24.8635 123.223 24.7601C123.353 24.5442 123.471 24.3489 123.624 24.1861C124.253 23.5188 124.904 22.868 125.566 22.2335ZM137.873 21.599C137.729 22.7969 137.597 23.8853 137.453 25.0503H137.448H135.102C135.373 23.8142 135.892 22.7367 136.642 21.8014C136.761 21.65 137.061 21.6407 137.392 21.6305C137.551 21.6255 137.717 21.6204 137.873 21.599ZM156.213 24.1494C156.35 24.4386 156.491 24.7364 156.641 25.0448V25.0503H154.141C154.065 24.4552 153.992 23.871 153.92 23.2918C153.856 22.7796 153.792 22.2714 153.727 21.7631C154.644 21.5006 154.87 21.5498 155.3 22.3265C155.624 22.9041 155.908 23.5051 156.213 24.1494ZM151.743 55.0623C151.577 55.1216 151.399 55.1856 151.2 55.2583C151.209 55.0728 151.217 54.8974 151.225 54.7294C151.244 54.293 151.262 53.906 151.294 53.519C151.299 53.426 151.426 53.3112 151.526 53.2674C152.241 52.958 152.956 52.6598 153.712 52.3447C154.012 52.2198 154.318 52.0922 154.633 51.9602C154.633 52.1499 154.64 52.3322 154.646 52.5083C154.661 52.8957 154.675 53.2534 154.61 53.5956C154.539 53.9839 154.296 54.2847 153.761 54.3121C153.493 54.3266 153.233 54.4522 152.971 54.5782C152.84 54.6418 152.707 54.7055 152.574 54.7551C152.312 54.8582 152.05 54.9521 151.743 55.0623ZM140.349 55.0358C140.329 55.0999 140.308 55.1697 140.29 55.2474V55.2419C140.131 55.1771 139.977 55.1128 139.827 55.05C139.509 54.9168 139.207 54.7901 138.899 54.6785C138.754 54.628 138.602 54.5901 138.45 54.5523C138.19 54.4878 137.93 54.4232 137.707 54.2957C137.409 54.1261 137.072 53.8198 136.99 53.5135C136.906 53.1995 136.922 52.8592 136.94 52.4838C136.948 52.3165 136.957 52.1422 136.957 51.9602C137.258 52.0863 137.557 52.2049 137.85 52.3216C138.651 52.6404 139.417 52.9451 140.124 53.3494C140.32 53.4644 140.345 53.8752 140.369 54.2717C140.378 54.4223 140.387 54.5709 140.406 54.7004C140.42 54.7993 140.388 54.9056 140.349 55.0358ZM170.046 21.5885C170.046 21.5884 170.046 21.5882 170.046 21.5881H170.04C170.042 21.5882 170.044 21.5884 170.046 21.5885ZM170.046 21.5885C170.04 21.6163 170.032 21.6423 170.024 21.6675C170.018 21.6869 170.012 21.7059 170.007 21.7248C170.108 21.8155 170.211 21.9046 170.314 21.9937C170.534 22.1841 170.755 22.3749 170.951 22.5835C171.074 22.7124 171.209 22.8386 171.344 22.9653C171.721 23.3174 172.103 23.6737 172.237 24.1041C172.584 25.2034 173.324 25.2308 174.207 25.1761C174.219 25.1761 174.233 25.1773 174.246 25.1785C174.274 25.1809 174.302 25.1834 174.328 25.1761C174.369 25.1656 174.416 25.1572 174.463 25.1487C174.589 25.1261 174.718 25.1029 174.742 25.0393C174.797 24.9026 174.77 24.6729 174.681 24.5526C173.683 23.1031 172.242 22.2444 170.625 21.6483C170.502 21.6026 170.363 21.5993 170.223 21.596C170.164 21.5946 170.104 21.5932 170.046 21.5885ZM121.527 21.5389C121.554 21.5936 121.582 21.6537 121.61 21.7139L121.615 21.7194C121.497 21.8246 121.373 21.9254 121.25 22.0262C120.983 22.245 120.716 22.4636 120.5 22.7257C120.178 23.117 119.885 23.5278 119.592 23.9383C119.394 24.2163 119.195 24.4942 118.988 24.7659C118.867 24.9245 118.668 25.1104 118.48 25.1378C118.14 25.1903 117.793 25.1868 117.448 25.1833C117.361 25.1824 117.275 25.1816 117.189 25.1816C116.715 25.1816 116.637 24.8917 116.88 24.5908C117.575 23.7157 118.282 22.8406 119.369 22.3866C119.538 22.3145 119.7 22.2266 119.861 22.1389C120.042 22.0404 120.222 21.9423 120.412 21.867C120.677 21.762 120.954 21.6898 121.232 21.6173C121.33 21.5917 121.429 21.566 121.527 21.5389ZM140.461 21.6701V24.9901H138.331C138.383 24.6349 138.434 24.2816 138.484 23.9296C138.582 23.2462 138.679 22.5676 138.789 21.8889C138.8 21.8014 138.987 21.6811 139.098 21.6811C139.447 21.6646 139.796 21.6667 140.133 21.6688C140.244 21.6695 140.353 21.6701 140.461 21.6701ZM153.157 24.1994C153.192 24.462 153.227 24.7272 153.264 24.9956H151.167V21.6647C151.27 21.6647 151.377 21.6632 151.487 21.6617C151.797 21.6573 152.126 21.6528 152.453 21.6811C152.596 21.692 152.811 21.8452 152.833 21.9655C152.956 22.7011 153.055 23.4398 153.157 24.1994ZM138.954 35.1743C139.959 34.3922 143.927 32.5818 144.616 32.6419H144.622C144.505 32.7615 144.399 32.8804 144.297 32.9951C144.114 33.2003 143.943 33.392 143.744 33.5499C143.324 33.8881 142.896 34.2175 142.467 34.5472C142.002 34.9053 141.536 35.2636 141.079 35.6338C140.781 35.8744 140.527 35.9018 140.196 35.7322C139.921 35.5922 139.638 35.4705 139.347 35.3454C139.218 35.2897 139.087 35.2333 138.954 35.1743ZM146.983 32.5401C146.982 32.5376 146.98 32.5351 146.978 32.5326L146.973 32.538C146.976 32.5387 146.98 32.5394 146.983 32.5401ZM147.121 32.7591C147.082 32.6958 147.038 32.6231 146.983 32.5401C147.11 32.565 147.225 32.5817 147.33 32.5969C147.538 32.6272 147.706 32.6518 147.856 32.724C149.177 33.3605 150.49 34.012 151.897 34.7102C152.183 34.8519 152.473 34.9956 152.767 35.1415C152.542 35.2349 152.331 35.3234 152.129 35.408C151.727 35.5761 151.363 35.7289 150.996 35.8744C150.941 35.8963 150.83 35.858 150.775 35.8088C149.622 34.8899 148.474 33.971 147.331 33.0412C147.254 32.9794 147.199 32.8886 147.121 32.7591ZM136.815 30.1373C135.669 30.5167 134.449 30.9209 133.21 31.3293V29.4642H138.849C138.209 29.6757 137.527 29.9017 136.815 30.1373ZM155.584 30.405C154.583 30.0719 153.61 29.7481 152.696 29.4423H158.374V31.3347C157.436 31.0214 156.498 30.7093 155.584 30.405ZM130.003 25.0908C129.81 25.0924 129.602 25.094 129.374 25.094L129.38 25.0886C129.596 24.7566 129.799 24.4337 129.996 24.1198C130.485 23.3425 130.939 22.6208 131.466 21.9545C131.63 21.7466 131.97 21.6746 132.309 21.6029C132.46 21.5709 132.611 21.539 132.746 21.4951C132.768 21.5307 132.789 21.5648 132.809 21.599C132.83 21.6332 132.851 21.6674 132.873 21.703C132.829 21.7785 132.78 21.8524 132.732 21.9262C132.63 22.0821 132.528 22.2378 132.465 22.4085C132.443 22.4643 132.421 22.5201 132.399 22.5758C132.134 23.2578 131.869 23.9373 131.675 24.6401C131.576 24.9846 131.46 25.1159 131.107 25.0995C130.762 25.0846 130.414 25.0875 130.003 25.0908ZM161.646 24.2141C161.819 24.4927 161.994 24.7766 162.176 25.0667H162.171C161.928 25.0702 161.699 25.0873 161.483 25.1034C161.028 25.1374 160.63 25.1671 160.278 25.0558C159.882 24.9284 159.851 24.5735 159.819 24.2079C159.801 23.9927 159.782 23.7738 159.688 23.5954C159.481 23.1994 159.292 22.7942 159.104 22.3902C159.001 22.1693 158.899 21.9488 158.794 21.7303C159.478 21.4732 159.903 21.5334 160.295 22.1022C160.759 22.7805 161.191 23.4789 161.646 24.2141ZM131.063 47.8909H130.892V32.5326C130.906 32.524 130.922 32.5155 130.938 32.507C130.952 32.4991 130.967 32.4912 130.98 32.4833C131.002 32.5363 131.031 32.5887 131.06 32.6407C131.117 32.7443 131.173 32.8463 131.173 32.9482C131.168 37.838 131.151 42.7332 131.129 47.6229C131.129 47.6857 131.109 47.746 131.089 47.8055C131.079 47.8341 131.07 47.8625 131.063 47.8909ZM160.703 32.5472C160.705 32.5459 160.707 32.5447 160.708 32.5435H160.703V32.5472ZM160.427 34.9665C160.423 33.4859 160.515 32.6795 160.703 32.5472V47.8964L160.687 47.8973C160.605 47.9025 160.527 47.9073 160.449 47.9073V45.364C160.444 44.5107 160.444 43.652 160.444 42.7933C160.438 41.9206 160.438 41.0479 160.438 40.1752V40.168C160.433 39.2874 160.433 38.4123 160.433 37.5371C160.427 36.6784 160.427 35.8252 160.427 34.9665ZM141.36 24.9518V21.6975H142.889C142.944 22.4679 142.997 23.2299 143.05 24.0095C143.072 24.3202 143.093 24.6338 143.115 24.9518H141.36ZM150.218 21.6701V24.9628H148.474C148.496 24.6909 148.517 24.4221 148.538 24.156C148.593 23.437 148.647 22.7366 148.728 22.0421C148.744 21.9053 148.993 21.7139 149.158 21.6865C149.376 21.6486 149.603 21.6554 149.859 21.6631C149.972 21.6665 150.091 21.6701 150.218 21.6701ZM141.266 17.4811C141.421 17.4835 141.579 17.486 141.741 17.486V17.4914C141.852 18.6838 141.3 19.548 140.698 20.3246C140.573 20.4863 140.224 20.4774 139.872 20.4685C139.712 20.4644 139.552 20.4603 139.412 20.4723C139.456 20.1891 139.496 19.9129 139.536 19.6417C139.627 19.0174 139.715 18.4199 139.826 17.8251C139.854 17.6938 140.08 17.5133 140.224 17.4969C140.563 17.4701 140.906 17.4755 141.266 17.4811ZM150.472 19.7011C150.052 19.0557 149.804 18.3666 149.837 17.486H149.831C149.979 17.486 150.124 17.484 150.266 17.4821C150.657 17.4768 151.031 17.4718 151.399 17.5078C151.542 17.5243 151.746 17.754 151.779 17.9181C151.894 18.5026 151.981 19.09 152.067 19.6782C152.101 19.91 152.135 20.1419 152.171 20.3739C151.117 20.5762 151.023 20.5434 150.472 19.7011ZM154.616 38.4094C154.618 38.4085 154.62 38.4077 154.621 38.4068H154.616V38.4094ZM153.409 38.9824C153.793 38.8006 154.191 38.6122 154.616 38.4094V39.2491C154.605 39.8234 154.417 40.2227 153.794 40.4196C153.235 40.591 152.697 40.818 152.158 41.0451C151.94 41.1368 151.723 41.2285 151.504 41.3166C151.482 41.327 151.457 41.322 151.431 41.3169C151.417 41.314 151.402 41.3111 151.388 41.3111C151.15 40.1078 151.183 40.0367 152.237 39.539C152.623 39.3549 153.008 39.1723 153.409 38.9824ZM139.285 39.5007C140.036 39.8544 140.345 40.4797 140.213 41.3767V41.3822C139.952 41.2756 139.691 41.1717 139.431 41.0681C138.717 40.7839 138.01 40.5022 137.326 40.1734C137.128 40.0804 137.045 39.6702 136.99 39.3913C136.953 39.2076 136.96 39.0139 136.969 38.7872C136.974 38.6765 136.979 38.5579 136.979 38.4287C137.221 38.5413 137.451 38.6467 137.674 38.7488C137.96 38.8796 138.235 39.0052 138.507 39.1342C138.637 39.1945 138.767 39.2561 138.897 39.3176C139.026 39.3791 139.156 39.4406 139.285 39.5007ZM19.9799 36.5253V30.7659C20.7359 30.6346 20.758 30.6456 20.758 31.3347C20.758 31.79 20.7556 32.2452 20.7532 32.7005C20.7475 33.7931 20.7418 34.8857 20.769 35.9783C20.7856 36.6019 20.5096 36.6565 19.9799 36.5253ZM271.626 30.7714V36.5143C271.074 36.6675 270.815 36.5964 270.826 35.9783C270.849 34.8726 270.845 33.7669 270.84 32.6612C270.838 32.2191 270.837 31.7769 270.837 31.3347C270.837 30.6456 270.859 30.6346 271.626 30.7714ZM140.288 43.4252C140.286 43.5256 140.284 43.6345 140.284 43.756V43.7505C139.991 43.6428 139.704 43.5382 139.422 43.4355C138.659 43.1574 137.932 42.8924 137.21 42.6128C137.095 42.5691 136.99 42.3776 136.979 42.2518C136.956 41.9845 136.959 41.7172 136.964 41.4071C136.966 41.2731 136.968 41.131 136.968 40.9774C137.194 41.0698 137.418 41.1602 137.638 41.2495C138.477 41.589 139.278 41.9132 140.069 42.2682C140.196 42.3284 140.246 42.6347 140.273 42.8371C140.296 43.0187 140.293 43.2002 140.288 43.4252ZM152.555 43.3011C152.158 43.4462 151.757 43.5931 151.349 43.745V43.7505C151.272 42.8207 151.61 42.2044 152.364 41.9018C152.821 41.7159 153.277 41.5348 153.733 41.3537C153.961 41.2631 154.189 41.1726 154.417 41.0814C154.44 41.0749 154.465 41.0761 154.507 41.0782C154.536 41.0796 154.572 41.0814 154.621 41.0814C154.621 41.1929 154.623 41.3052 154.624 41.4179C154.627 41.7198 154.631 42.0243 154.61 42.3229C154.599 42.4269 154.484 42.5855 154.379 42.6238C153.777 42.8535 153.172 43.0752 152.555 43.3011ZM136.964 43.7795C136.966 43.6774 136.968 43.5699 136.968 43.4551V43.4606C137.183 43.5389 137.394 43.6156 137.603 43.6914C138.446 43.9968 139.243 44.286 140.03 44.5928C140.152 44.6365 140.268 44.8553 140.279 45.0085C140.302 45.2576 140.298 45.5121 140.294 45.8002C140.292 45.9233 140.29 46.0524 140.29 46.1899C140.029 46.0858 139.772 45.984 139.518 45.8833C138.717 45.5659 137.945 45.2599 137.183 44.9319C137.061 44.8827 136.995 44.6092 136.979 44.4342C136.955 44.2274 136.959 44.0179 136.964 43.7795ZM151.719 46.0252C151.582 46.0796 151.444 46.1344 151.305 46.1899C151.305 46.0454 151.302 45.9092 151.3 45.7791C151.294 45.4854 151.289 45.2224 151.316 44.9647C151.332 44.8225 151.465 44.6201 151.597 44.5709C152.33 44.2862 153.066 44.0201 153.848 43.7375C154.102 43.6455 154.361 43.5518 154.627 43.4551C154.627 43.5819 154.628 43.7025 154.63 43.8187C154.633 44.1138 154.636 44.3806 154.616 44.6475C154.61 44.7569 154.489 44.91 154.39 44.9483C153.519 45.3106 152.648 45.6563 151.719 46.0252ZM141.631 53.6448H144.252C144.296 53.6995 144.318 53.7323 144.318 53.7323C144.447 54.7788 143.985 55.3021 142.933 55.3021C141.966 55.3021 141.511 54.8207 141.57 53.8581C141.573 53.8267 141.584 53.7953 141.597 53.7546C141.607 53.7244 141.619 53.6891 141.631 53.6448ZM147.3 53.6933C147.312 53.6792 147.327 53.6603 147.348 53.6339H149.953C150.245 55.2419 150.201 55.3021 148.672 55.3021C147.628 55.3021 147.16 54.7806 147.271 53.7378C147.271 53.7275 147.279 53.7172 147.3 53.6933ZM133.198 25.0917C133.094 25.0902 132.986 25.0886 132.873 25.0886C132.972 23.7267 133.618 22.7093 134.413 21.8069C134.548 21.6492 134.859 21.6402 135.154 21.6317C135.278 21.6281 135.4 21.6246 135.505 21.61C135.42 21.8322 135.337 22.0519 135.254 22.2694C134.912 23.1713 134.583 24.0368 134.236 24.8917C134.197 24.9956 133.988 25.0667 133.85 25.0831C133.64 25.0982 133.429 25.0951 133.198 25.0917ZM157.624 22.3101C158.137 23.1469 158.633 23.9728 158.722 25.0065C158.69 25.0205 158.664 25.0328 158.643 25.0431C158.598 25.065 158.571 25.0776 158.545 25.0776C157.521 25.1627 157.518 25.1547 157.18 24.2713L157.149 24.1916C156.924 23.609 156.664 23.0396 156.403 22.4669C156.287 22.2115 156.17 21.9555 156.056 21.6975C156.719 21.5225 157.226 21.6537 157.624 22.3101ZM158.407 19.5427C158.618 19.8189 158.831 20.098 159.042 20.3848V20.3903C157.182 20.6145 156.415 19.8707 156.018 17.486C156.492 17.3547 156.851 17.3438 157.182 17.8524C157.559 18.4316 157.979 18.9813 158.407 19.5427ZM135.247 17.4068C135.36 17.4022 135.474 17.3976 135.577 17.3821C135.279 19.7722 134.335 20.6856 132.586 20.3629C132.746 20.1417 132.905 19.9196 133.063 19.6975C133.584 18.9696 134.104 18.2418 134.666 17.5461C134.765 17.4264 135.002 17.4167 135.247 17.4068ZM174.538 49.9255C174.532 49.9529 174.532 50.1607 174.532 50.1607H155.907V49.8927C159.014 49.9228 162.12 49.916 165.225 49.9091C168.33 49.9023 171.434 49.8955 174.538 49.9255ZM117.062 50.1553C117.062 50.1279 117.073 49.931 117.073 49.931C120.237 49.8976 123.393 49.9039 126.549 49.9102C129.593 49.9162 132.637 49.9223 135.687 49.8927V50.1553H117.062ZM129.358 26.3794H131.504V28.2445H129.358V26.3794ZM162.254 28.2335H160.074V26.3739H162.254V28.2335ZM5.2343 36.4432H4.54448V30.7495H5.2343V36.4432ZM287.061 36.4268H286.36V30.744H287.061V36.4268ZM168.782 28.2554C168.782 28.2572 168.782 28.2591 168.782 28.2609L168.788 28.2554H168.782ZM168.782 28.2554C168.738 27.5957 168.699 26.9902 168.661 26.3466C168.478 26.3466 168.303 26.344 168.134 26.3416C167.748 26.336 167.392 26.3308 167.038 26.3575C166.895 26.3684 166.657 26.5599 166.646 26.6747C166.615 27.0449 166.62 27.4208 166.626 27.8044C166.628 27.9535 166.63 28.1038 166.63 28.2554H168.782ZM124.98 27.8173C124.978 27.9633 124.976 28.1126 124.976 28.2663H124.97H122.829C122.862 27.6319 122.89 27.0248 122.917 26.352C123.093 26.352 123.263 26.3498 123.43 26.3477C123.849 26.3422 124.243 26.3371 124.634 26.3684C124.755 26.3794 124.948 26.6146 124.959 26.7568C124.991 27.1014 124.986 27.4489 124.98 27.8173ZM13.3907 40.6055H15.4381V42.4925H13.3907V40.6055ZM278.193 42.498H276.162V40.5836H278.193V42.498ZM146.553 21.7194H147.806C147.766 22.4285 147.723 23.1256 147.68 23.8361C147.658 24.1997 147.635 24.5669 147.613 24.9409H146.553V21.7194ZM143.794 21.7194H145.063H145.069V24.9464H143.982C143.955 24.4807 143.928 24.015 143.9 23.547C143.864 22.9432 143.828 22.3356 143.794 21.7194ZM153.921 27.7303C153.921 26.1497 154.318 25.8762 155.962 26.3848C155.962 26.5283 155.965 26.668 155.968 26.8049C155.975 27.138 155.981 27.4547 155.946 27.7686C155.929 27.9218 155.725 28.1624 155.587 28.1788C155.206 28.2103 154.822 28.205 154.429 28.1995C154.275 28.1974 154.121 28.1952 153.965 28.1952C153.958 28.1203 153.95 28.0537 153.943 27.9923C153.931 27.8968 153.921 27.8135 153.921 27.7303ZM135.628 26.7536C135.63 26.5928 135.632 26.4253 135.632 26.2481H136.46C137.586 26.2317 137.646 26.2864 137.668 27.435V28.1898C137.504 28.1898 137.343 28.1914 137.184 28.1929C136.755 28.1972 136.341 28.2013 135.93 28.1734C135.825 28.1679 135.654 27.9491 135.643 27.8178C135.62 27.4758 135.624 27.1337 135.628 26.7536ZM12.3422 42.498H10.3334V40.6493H12.3422V42.498ZM279.258 40.6712H281.245V42.498H279.258V40.6712ZM118.701 28.2718H116.869V26.3903H118.701V28.2718ZM174.72 28.2609H172.932C172.919 28.1042 172.905 27.9505 172.891 27.799C172.863 27.4959 172.836 27.2017 172.822 26.9099C172.805 26.5708 172.888 26.3247 173.335 26.3575C173.639 26.3798 173.944 26.3743 174.262 26.3685C174.411 26.3657 174.563 26.363 174.72 26.363V28.2609ZM11.1833 24.7768C12.2097 24.0712 12.7892 24.0877 14.1578 24.8424H14.1633C14.0621 24.9654 13.9661 25.0928 13.8708 25.2193C13.644 25.5203 13.4205 25.8169 13.1369 26.0403C12.9492 26.1879 12.436 26.1715 12.2484 26.0184C11.9486 25.7728 11.7067 25.4554 11.464 25.1369C11.3716 25.0158 11.2791 24.8944 11.1833 24.7768ZM277.722 25.2166C277.627 25.0906 277.531 24.9643 277.431 24.8424L277.437 24.837C278.43 24.2791 279.385 23.9509 280.428 24.7659C280.333 24.882 280.239 25.002 280.146 25.1227C279.886 25.4566 279.622 25.7958 279.302 26.0731C279.137 26.2153 278.629 26.1934 278.452 26.0457C278.173 25.8112 277.948 25.5146 277.722 25.2166ZM126.229 28.2445V26.4177H126.234C126.275 26.4042 126.306 26.3927 126.331 26.3835C126.377 26.3667 126.402 26.3575 126.427 26.3575C128.088 26.2536 128.315 26.5106 128.006 28.2445H126.229ZM163.595 26.3739H165.377V28.239H163.595V26.3739ZM160.9 19.713C161.069 19.9387 161.239 20.1659 161.415 20.3903L161.42 20.3957C160.78 20.527 160.261 20.4504 159.842 19.898C159.432 19.3604 159.001 18.8424 158.557 18.3097C158.337 18.0456 158.113 17.7779 157.888 17.5024C158.683 17.2123 159.116 17.6529 159.481 18.0235C159.528 18.0722 159.575 18.1197 159.621 18.1642C160.093 18.6321 160.494 19.1683 160.9 19.713ZM133.567 17.4546C133.605 17.4915 133.645 17.529 133.684 17.568V17.5735C133.47 17.8234 133.259 18.0759 133.048 18.3283C132.497 18.9873 131.947 19.646 131.344 20.259C131.147 20.4597 130.71 20.4282 130.316 20.3998C130.27 20.3964 130.224 20.3931 130.18 20.3903C130.592 20.0427 130.906 19.5898 131.22 19.139C131.784 18.327 132.344 17.5216 133.458 17.3492C133.493 17.3841 133.53 17.4191 133.567 17.4546ZM152.684 28.1405H150.885C150.985 27.4897 151.079 26.8826 151.178 26.27H152.773C152.745 26.9044 152.718 27.517 152.684 28.1405ZM121.621 28.2445H119.987V26.3848H121.621V28.2445ZM171.597 28.2499H169.985V26.3958H171.597V28.2499ZM138.866 27.1965C138.848 26.8975 138.83 26.5881 138.811 26.2645H140.411C140.445 26.4695 140.478 26.6727 140.512 26.8771C140.578 27.2781 140.645 27.684 140.715 28.1187H138.921C138.904 27.82 138.886 27.5141 138.866 27.1965ZM112.327 39.4733H114.855V40.611H112.327V39.4733ZM176.773 39.4624H179.278V40.6219H176.773V39.4624ZM134.341 28.2007H132.796V26.981C132.796 26.8265 132.806 26.6687 132.816 26.518C132.818 26.4767 132.821 26.4358 132.823 26.3958C134.407 26.1387 134.539 26.3411 134.341 28.2007ZM157.254 28.2007C157.055 26.3192 157.215 26.1387 158.771 26.4012V28.2007H157.254ZM145.085 9.42941H141.703V8.63633H145.085V9.42941ZM146.493 8.63086H149.903V9.42394H146.493V8.63086ZM127.459 20.352C128.629 20.8005 129.738 19.7339 130.478 18.5306C129.181 18.6455 127.972 18.9244 127.459 20.352ZM161.062 18.5142C162.171 20.073 163.131 20.7622 164.124 20.3246C163.644 18.8971 162.408 18.6674 161.062 18.5142ZM113.083 26.4669H114.8V29.1415C114.701 29.0138 114.601 28.8875 114.5 28.7611C113.956 28.075 113.41 27.386 113.083 26.4669ZM143.093 19.6574C142.887 20.2371 142.477 20.4833 141.863 20.3957L141.857 20.3903C142.166 19.4823 142.481 18.558 142.817 17.5625H143.684C143.664 17.6733 143.647 17.7805 143.63 17.8851C143.592 18.1264 143.556 18.353 143.491 18.5744C143.421 18.8187 143.326 19.0581 143.232 19.2975C143.185 19.4173 143.137 19.537 143.093 19.6574ZM177.267 28.5226C177.105 28.7265 176.943 28.9303 176.79 29.1415V26.4559H178.489C178.253 27.2832 177.76 27.903 177.267 28.5226ZM149.264 19.0114C149.423 19.4851 149.58 19.9528 149.738 20.4176C148.81 20.4942 148.799 20.4942 148.474 19.5753C148.329 19.1691 148.198 18.7561 148.06 18.322C147.982 18.0782 147.902 17.8277 147.817 17.568H148.777C148.943 18.0576 149.104 18.5376 149.264 19.0114ZM148.667 26.2536H149.837L149.835 26.2753C149.781 26.9175 149.731 27.4967 149.682 28.1187H148.286C148.054 27.424 148.198 26.8169 148.667 26.2536ZM141.839 27.2656C141.811 26.9412 141.781 26.6074 141.752 26.2536H143.082C143.13 26.463 143.18 26.6761 143.231 26.8954C143.321 27.2776 143.414 27.6788 143.513 28.1132H141.912C141.889 27.8331 141.864 27.5531 141.839 27.2656ZM137.404 37.6793C136.968 37.5262 136.885 37.2855 137.05 36.848V36.8425C137.31 36.9329 137.57 37.0203 137.829 37.1076C138.559 37.3529 139.285 37.597 139.981 37.9036C140.134 37.9701 140.203 38.2262 140.273 38.4832C140.307 38.6067 140.341 38.7304 140.384 38.8334C140.37 38.8434 140.357 38.8531 140.344 38.8628C140.293 38.9006 140.244 38.9364 140.196 38.9756C139.973 38.869 139.748 38.7637 139.523 38.6584C139.298 38.5531 139.073 38.4478 138.849 38.3412C138.705 38.2735 138.561 38.2023 138.417 38.1311C138.084 37.9664 137.75 37.8015 137.404 37.6793ZM152.318 38.5429C152.013 38.6898 151.704 38.8388 151.388 38.9866C151.244 37.9911 151.244 37.9911 152.044 37.7176C152.501 37.5604 152.956 37.4013 153.411 37.2425C153.747 37.1252 154.082 37.008 154.417 36.8917C154.438 36.8848 154.464 36.8867 154.495 36.889C154.513 36.8903 154.533 36.8917 154.555 36.8917C154.726 37.3129 154.583 37.5153 154.158 37.6958C153.544 37.9525 152.939 38.2436 152.318 38.5429ZM152.68 18.0027C152.654 17.841 152.628 17.6797 152.602 17.5188H152.596C153.214 17.3219 153.49 17.4313 153.567 18.0603C153.634 18.6099 153.767 19.1513 153.901 19.7C153.957 19.9267 154.012 20.1546 154.064 20.3848C153.507 20.5544 153.082 20.4504 152.971 19.7832C152.872 19.1904 152.775 18.5943 152.68 18.0027ZM138.987 17.5292L138.987 17.5297V17.5243C138.987 17.5258 138.987 17.5273 138.987 17.5289C138.932 17.4635 138.877 17.3982 138.816 17.3328C138.742 17.373 138.653 17.4096 138.563 17.4464C138.359 17.5297 138.154 17.614 138.115 17.743C137.935 18.388 137.807 19.0449 137.678 19.7027C137.633 19.932 137.589 20.1613 137.542 20.3903C138.397 20.4887 138.469 20.4723 138.651 19.6847C138.76 19.2002 138.825 18.708 138.891 18.2152C138.921 17.9863 138.952 17.7573 138.987 17.5289C138.987 17.529 138.987 17.5291 138.987 17.5292ZM145.069 17.6008V20.4067V20.4122H143.755C143.827 20.2087 143.897 20.0121 143.966 19.8197C144.11 19.4175 144.247 19.034 144.374 18.6455C144.405 18.5435 144.421 18.4374 144.438 18.332C144.459 18.1945 144.48 18.0584 144.534 17.9345C144.584 17.8229 144.676 17.7302 144.769 17.6363C144.817 17.5875 144.865 17.5383 144.909 17.486C144.936 17.5051 144.963 17.5243 144.989 17.5434C145.015 17.5625 145.041 17.5817 145.069 17.6008ZM147.767 20.4012H146.515V17.475C146.592 17.5122 146.672 17.5418 146.745 17.569C146.888 17.6218 147.006 17.6654 147.028 17.7376C147.238 18.4287 147.425 19.1234 147.617 19.8407C147.666 20.0259 147.716 20.2126 147.767 20.4012ZM135.663 31.7722C135.809 31.704 135.967 31.6299 136.112 31.5426H136.118C136.118 31.7942 136.128 32.0315 136.137 32.257C136.158 32.7667 136.177 33.2165 136.074 33.6374C136.018 33.8629 135.77 34.0434 135.496 34.2431C135.365 34.3389 135.228 34.4391 135.102 34.5508C135.102 34.2921 135.097 34.0443 135.092 33.8048C135.078 33.2139 135.066 32.6735 135.141 32.1442C135.159 32.0085 135.389 31.9007 135.663 31.7722ZM284.285 26.2426H280.61C280.643 26.1114 280.654 26.0731 280.654 26.0731C281.132 25.3912 281.758 25.1943 282.53 25.4824C283.126 25.7066 283.723 25.9363 284.285 26.2426ZM7.17441 26.2153H7.16027V26.2208C7.16499 26.2189 7.1697 26.2171 7.17441 26.2153ZM7.17441 26.2153H11.0784C10.9962 26.1145 10.9212 26.0209 10.8509 25.9331C10.6618 25.6971 10.5064 25.5032 10.3334 25.3238C10.2396 25.2308 10.0354 25.1269 9.93611 25.1651C9.22745 25.4182 8.52231 25.6921 7.75627 25.9896C7.56639 26.0634 7.37276 26.1386 7.17441 26.2153ZM155.537 31.7237C155.538 31.7235 155.538 31.7233 155.538 31.7231H155.532C155.534 31.7233 155.536 31.7235 155.537 31.7237ZM156.553 34.3758C155.438 34.0586 155.278 33.6265 155.537 31.7237C156.404 31.8272 156.459 31.8888 156.498 32.6748L156.564 34.1351C156.568 34.1922 156.563 34.2522 156.558 34.3131C156.556 34.3339 156.554 34.3548 156.553 34.3758ZM20.0019 51.3148H20.7194V53.6886H20.0019V51.3148ZM270.881 53.7159V51.3203H271.609V53.6721C271.478 53.6786 271.345 53.6871 271.199 53.6963C271.1 53.7026 270.995 53.7092 270.881 53.7159ZM151.984 7.50415C151.664 7.62994 151.178 7.09393 151.178 6.75483C151.183 6.22428 151.492 5.92893 152.072 5.91799C152.458 5.91252 152.872 6.34461 152.729 6.76029C152.629 7.06659 152.293 7.38382 151.984 7.50415ZM139.534 5.92346C140.124 5.94534 140.417 6.22428 140.417 6.76576V6.76029C140.417 7.10487 139.909 7.62994 139.6 7.49868C139.296 7.37288 138.96 7.05565 138.866 6.74936C138.728 6.32273 139.147 5.90705 139.534 5.92346ZM154.241 31.9036V33.167V33.1725C153.308 32.981 153.264 32.9209 153.264 32.1278V31.0448C154.186 31.0558 154.241 31.105 154.241 31.9036ZM137.891 31.0461C138.001 30.9904 138.115 30.9331 138.215 30.8698C138.568 32.5325 138.425 32.9045 137.354 33.1779C137.354 33.0084 137.348 32.8393 137.342 32.6712C137.328 32.2484 137.314 31.8324 137.393 31.4332C137.423 31.2828 137.649 31.1686 137.891 31.0461ZM277.216 26.0348C277.177 26.0895 277.144 26.1497 277.106 26.2043H273.971C273.967 26.1907 273.961 26.1771 273.955 26.1631C273.947 26.1433 273.939 26.1228 273.933 26.1004C274.144 26.0205 274.354 25.934 274.564 25.8474C275.117 25.62 275.669 25.3924 276.245 25.2855C276.426 25.2556 276.661 25.4936 276.895 25.7311C277.004 25.8414 277.113 25.9516 277.216 26.0348ZM17.629 26.1825H14.3785C14.4099 26.1406 14.4387 26.1026 14.4652 26.0676C14.5599 25.9426 14.626 25.8553 14.6821 25.7613C14.9745 25.2691 15.3332 25.1269 15.8961 25.4113C16.1522 25.5419 16.4187 25.6495 16.6872 25.7578C17.0031 25.8853 17.3217 26.0139 17.629 26.1825ZM150.088 6.59128C150.089 6.59293 150.09 6.59457 150.091 6.59621V6.58527C150.09 6.58728 150.089 6.58928 150.088 6.59128ZM149.968 6.34287C150.006 6.42723 150.045 6.51247 150.088 6.59128C149.94 6.91632 149.831 7.15003 149.721 7.37835C149.628 7.32017 149.531 7.26586 149.434 7.21156C149.185 7.07186 148.936 6.93229 148.761 6.72748C148.65 6.60168 148.744 6.14771 148.899 5.9891C149.048 5.83595 149.467 5.74844 149.638 5.85236C149.789 5.94435 149.878 6.14112 149.968 6.34287ZM141.485 6.46709C141.484 6.46637 141.483 6.46566 141.482 6.46494V6.47041C141.483 6.46931 141.484 6.4682 141.485 6.46709ZM141.611 6.57256C141.571 6.53823 141.528 6.50066 141.485 6.46709C141.543 6.39736 141.597 6.32074 141.651 6.24434C141.775 6.06945 141.899 5.89573 142.067 5.8086C142.403 5.63358 142.69 5.83595 142.85 6.18053C143.033 6.57433 142.9 6.84234 142.53 7.03924C142.5 7.05432 142.472 7.07978 142.443 7.10556C142.41 7.1359 142.376 7.16666 142.337 7.18145C142.185 7.24453 142.025 7.29901 141.867 7.35252L141.807 7.37288C141.787 7.31277 141.765 7.25413 141.744 7.19588C141.707 7.09512 141.67 6.99554 141.642 6.89156C141.627 6.82594 141.627 6.75788 141.627 6.68902C141.627 6.65457 141.627 6.61992 141.625 6.58527L141.611 6.57256ZM148.441 13.4878H146.498V12.7494C147.856 12.4322 148.336 12.6072 148.441 13.4878ZM145.019 12.7057C145.044 12.7164 145.071 12.7282 145.102 12.7385V13.4932H143.215C143.159 12.7822 143.253 12.6728 143.932 12.6673C144.258 12.6619 144.583 12.6673 144.909 12.6728C144.943 12.6728 144.978 12.6878 145.019 12.7057ZM154.481 17.9348C154.468 17.7721 154.456 17.6094 154.439 17.4477C154.768 17.677 154.827 18.0118 154.886 18.3462C154.917 18.5224 154.948 18.6984 155.019 18.8588C155.158 19.1691 155.304 19.4794 155.473 19.839C155.572 20.0499 155.679 20.2777 155.797 20.5325C155.677 20.4769 155.564 20.436 155.463 20.3996C155.276 20.3322 155.131 20.28 155.063 20.177C154.601 19.5021 154.541 18.7185 154.481 17.9348ZM137.061 17.2945C137.453 18.5635 136.67 20.4559 135.941 20.3793L135.947 20.3624C136.304 19.3781 136.661 18.3931 137.061 17.2945ZM148.926 35.9291C147.431 36.1807 147.194 35.9947 147.05 34.4961C147.52 34.8532 147.96 35.1897 148.418 35.5401C148.584 35.6674 148.753 35.7965 148.926 35.9291ZM143.374 35.3898C143.77 35.0838 144.164 34.7797 144.605 34.4414C144.37 35.363 144.347 35.7647 144.138 35.9233C143.936 36.0772 143.559 36.0022 142.646 35.951C142.897 35.758 143.136 35.5736 143.374 35.3898ZM151.123 30.651C150.935 31.7559 150.99 31.8489 151.956 32.084C152.182 30.7167 152.122 30.6128 151.123 30.651ZM140.407 30.68L140.472 30.6893C140.665 31.7449 140.61 31.8434 139.644 32.0895C139.456 30.5418 139.556 30.5564 140.407 30.68ZM4.52792 53.5081V51.4843H5.11289V53.4752C5.0494 53.4787 4.98873 53.4817 4.92854 53.4846C4.80038 53.4908 4.67437 53.4969 4.52792 53.5081ZM286.498 53.5135V51.4843H287.072V53.4752C286.89 53.4862 286.719 53.4971 286.498 53.5135ZM143.667 10.7421H145.119V11.4641H143.667V10.7421ZM146.476 10.7311H147.927V11.4641H146.476V10.7311ZM143.64 14.8005L143.744 16.2717H142.999C142.768 15.0028 142.884 14.7184 143.64 14.8005ZM147.916 16.2608V14.8333C148.65 14.5762 148.75 14.6418 148.606 16.2608H147.916ZM154.881 12.7713C155.427 13.63 155.957 13.8105 156.879 13.4659C156.244 12.6619 156.172 12.6345 154.881 12.7713ZM136.714 12.7931C135.483 12.6072 135.047 12.7822 134.755 13.5643C135.522 13.6409 136.272 13.6956 136.714 12.7931ZM140.562 13.5698C140.561 13.5698 140.561 13.5698 140.56 13.5698V13.5753C140.561 13.5735 140.561 13.5716 140.562 13.5698ZM140.841 13.5711C140.755 13.5705 140.663 13.5698 140.562 13.5698C140.858 12.6181 140.866 12.6184 141.951 12.7494C141.936 12.8838 141.919 13.0198 141.902 13.1618C141.887 13.28 141.872 13.4024 141.857 13.5315C141.759 13.5365 141.669 13.5437 141.583 13.5507C141.48 13.559 141.382 13.5668 141.283 13.5698C141.14 13.5734 141 13.5723 140.841 13.5711ZM149.696 13.1364C149.675 13.0106 149.655 12.8847 149.633 12.7494H149.638C150.742 12.6127 150.814 12.6564 150.979 13.5315H149.76C149.737 13.3933 149.716 13.2649 149.696 13.1364ZM142.348 11.4586H141.156V10.7311H142.348V11.4586ZM150.449 11.4586H149.246V10.7366H150.449V11.4586ZM153.722 13.5534C153.303 12.7275 152.977 12.5798 152.171 12.815C152.293 13.3693 152.81 13.6154 153.722 13.5534ZM139.434 12.7822C138.524 12.6236 138.154 12.815 137.917 13.5425C138.781 13.6263 139.287 13.3729 139.434 12.7822ZM153.954 11.4695V10.7913C154.621 10.7202 155.179 10.671 155.322 11.4695H153.954ZM137.657 11.4246C137.637 11.4398 137.617 11.455 137.597 11.4695H136.278C136.526 10.7913 136.786 10.6053 137.404 10.7804C137.517 10.8142 137.595 10.9748 137.671 11.1341C137.706 11.2064 137.741 11.2785 137.779 11.3383C137.738 11.3638 137.698 11.3942 137.657 11.4246ZM146.617 14.7252C146.644 14.7061 146.67 14.6873 146.697 14.6692V14.6637C146.733 14.7088 146.775 14.7535 146.818 14.7983C146.92 14.9058 147.023 15.0145 147.039 15.1341C147.078 15.4294 147.028 15.7412 146.978 16.0366C146.967 16.1027 146.896 16.1565 146.824 16.2112C146.789 16.2379 146.753 16.2649 146.724 16.2936C146.697 16.2624 146.661 16.2324 146.627 16.2028C146.558 16.1443 146.491 16.0874 146.487 16.0256C146.467 15.735 146.47 15.4416 146.474 15.1494C146.475 15.0401 146.476 14.931 146.476 14.8223C146.525 14.7912 146.572 14.7579 146.617 14.7252ZM144.953 14.6747C145.008 14.7239 145.063 14.7786 145.113 14.8333V14.8387C145.113 14.9492 145.114 15.0597 145.115 15.1701C145.119 15.4641 145.122 15.7572 145.102 16.0475C145.096 16.135 144.958 16.2553 144.854 16.2882C144.798 16.3046 144.627 16.1788 144.616 16.1022C144.572 15.7412 144.528 15.3747 144.561 15.0138C144.569 14.9256 144.691 14.8481 144.81 14.772C144.861 14.7395 144.912 14.7073 144.953 14.6747ZM157.668 16.1022C157.69 15.2417 157.517 14.8314 157.149 14.8716C156.95 15.9655 157.028 16.1624 157.668 16.1022ZM134.451 14.877C133.828 14.795 133.822 14.8169 133.949 16.0967C134.562 16.1733 134.628 16.0147 134.451 14.877ZM152.618 10.7421V11.4312C151.702 11.5789 151.63 11.5242 151.768 10.7421H152.618ZM139.804 10.7421C140.003 11.5023 139.948 11.557 138.971 11.4531V10.7421H139.804ZM167.181 20.208L167.187 20.2098C166.271 20.5325 165.537 20.2809 164.947 19.5698C165.695 19.7826 166.438 19.9953 167.181 20.208ZM125.33 19.9447C125.77 19.8184 126.209 19.6923 126.648 19.5644C126.041 20.259 125.312 20.5489 124.391 20.2152C124.705 20.1244 125.018 20.0345 125.33 19.9447ZM144.909 28.1296C144.837 28.1405 144.76 28.1515 144.688 28.1624C144.675 27.8662 144.66 27.5699 144.645 27.273C144.63 26.9615 144.614 26.6493 144.6 26.3356C145.08 26.2372 145.229 27.0959 144.909 28.1296ZM146.907 28.1624C146.371 27.4733 146.509 26.3028 146.995 26.2864C146.962 26.9449 146.934 27.5492 146.907 28.1533L146.907 28.1624ZM138.237 15.4951C138.264 15.4841 138.298 15.4732 138.325 15.4677L138.331 15.4623C138.331 15.4422 138.328 15.4215 138.326 15.4009C138.321 15.3596 138.316 15.3182 138.331 15.2818C138.375 15.1687 138.429 15.0556 138.483 14.9425C138.51 14.886 138.537 14.8296 138.562 14.7731C138.585 14.8193 138.608 14.8651 138.631 14.9108C138.692 15.0329 138.753 15.1544 138.805 15.2818C138.827 15.3365 138.822 15.4076 138.805 15.4623C138.779 15.5432 138.791 15.6429 138.803 15.7415C138.828 15.9494 138.853 16.153 138.513 16.1678C138.457 16.1715 138.393 15.9706 138.329 15.7673C138.298 15.6697 138.267 15.5714 138.237 15.4951ZM151.112 15.1363C151.128 14.9821 151.145 14.8187 151.161 14.6418H151.167C151.503 14.97 151.658 15.9983 151.492 16.1788C151.432 16.2389 151.294 16.2882 151.228 16.2553C151.139 16.2116 151.04 16.0913 151.04 16.0092C151.051 15.733 151.08 15.4542 151.112 15.1363ZM153.247 14.8387V16.1514C152.773 16.1295 152.712 16.0201 152.795 15.1286C152.806 15.0328 152.892 14.9444 152.979 14.8552C153.022 14.8119 153.064 14.7685 153.098 14.7239L153.247 14.8387ZM140.157 16.2225C139.904 16.1186 140.069 14.9481 140.433 14.7129C140.446 14.8483 140.461 14.9794 140.476 15.1075C140.511 15.4141 140.544 15.7035 140.544 15.9928C140.544 16.0748 140.246 16.2608 140.157 16.2225ZM154.616 15.4114C154.613 15.4432 154.611 15.4752 154.61 15.5064C154.61 15.5062 154.61 15.5062 154.61 15.506V15.5115C154.61 15.5098 154.61 15.5081 154.61 15.5064C154.612 15.534 154.615 15.5621 154.618 15.5901C154.626 15.6672 154.635 15.7442 154.61 15.8123C154.577 15.8962 154.525 15.9752 154.472 16.0542C154.445 16.0937 154.419 16.1332 154.395 16.1733C154.369 16.1424 154.338 16.112 154.307 16.0814C154.232 16.0089 154.157 15.9352 154.141 15.8506C154.097 15.6373 154.092 15.4021 154.13 15.1833C154.145 15.0882 154.212 15.0054 154.279 14.9217C154.312 14.8802 154.346 14.8385 154.373 14.795C154.398 14.8386 154.425 14.8817 154.452 14.9249C154.509 15.0171 154.567 15.1101 154.605 15.2107C154.628 15.2669 154.622 15.3384 154.616 15.4114ZM137.52 15.4568C137.504 15.4622 137.489 15.4677 137.475 15.4732H137.47C137.47 15.4858 137.472 15.4989 137.473 15.5123C137.477 15.5396 137.481 15.5678 137.47 15.5935C137.407 15.744 137.34 15.8912 137.273 16.0401C137.252 16.0861 137.231 16.1323 137.21 16.1788C137.185 16.113 137.159 16.0478 137.133 15.9826C137.082 15.8527 137.03 15.7228 136.979 15.5881C136.968 15.5498 136.968 15.506 136.979 15.4677C137.001 15.3938 136.99 15.3026 136.979 15.2124C136.955 15.0157 136.931 14.824 137.26 14.8278C137.334 14.8278 137.404 15.0209 137.474 15.2118C137.504 15.2935 137.534 15.3748 137.564 15.4404C137.55 15.4458 137.535 15.4513 137.52 15.4568ZM150.151 16.2499C150.091 16.2444 150.036 16.2389 149.975 16.2389V16.2335C149.732 15.517 149.782 14.9864 150.24 14.6801C150.207 15.2654 150.179 15.7576 150.151 16.2499ZM141.443 16.2608C141.879 15.6537 141.824 14.9591 141.355 14.7239C141.388 15.2763 141.416 15.7686 141.443 16.2608ZM135.722 15.475C135.747 15.739 135.773 16.0254 135.395 16.2553V14.8497C135.407 14.8445 135.418 14.8392 135.43 14.8341C135.466 14.8177 135.501 14.802 135.538 14.7895C135.559 14.833 135.584 14.877 135.61 14.9207C135.669 15.02 135.726 15.1178 135.715 15.2052C135.705 15.2899 135.713 15.381 135.722 15.475ZM156.183 14.795C155.731 15.1013 155.736 15.9108 156.183 16.1733V14.795ZM149.678 31.1099L149.677 31.1105L148.982 30.5526C149.034 30.5358 149.092 30.5101 149.15 30.4844C149.28 30.4267 149.411 30.3687 149.484 30.4104C149.605 30.4856 149.69 30.6177 149.776 30.7515C149.815 30.8124 149.854 30.8736 149.898 30.93C149.821 30.99 149.749 31.0499 149.678 31.1099ZM141.694 30.894C141.693 30.8932 141.692 30.8925 141.692 30.8917V30.8972C141.692 30.8961 141.693 30.8951 141.694 30.894ZM141.694 30.894C141.738 30.9288 141.781 30.965 141.824 31.0011C141.868 31.038 141.912 31.0749 141.956 31.1105C142.064 31.0147 142.173 30.9163 142.282 30.8178C142.391 30.7194 142.5 30.6209 142.608 30.5252C142.557 30.5115 142.502 30.489 142.447 30.4666C142.326 30.4178 142.207 30.3692 142.139 30.4104C142.016 30.4803 141.923 30.6022 141.831 30.7244C141.786 30.7827 141.742 30.8411 141.694 30.894ZM53.5195 73.5056C53.2326 73.8393 53.0173 74.2057 52.8849 74.605V74.6105C52.7469 75.0097 52.6807 75.3981 52.6807 75.7426C52.6807 76.0872 52.7469 76.4646 52.8849 76.8584C53.0173 77.2522 53.2271 77.6187 53.5195 77.9578C53.8065 78.2914 54.1762 78.5704 54.6232 78.7946C55.0702 79.0189 55.6055 79.1283 56.2291 79.1283C56.6486 79.1283 57.0349 79.079 57.377 78.9751C57.7247 78.8712 58.0282 78.7345 58.3041 78.5594C58.5745 78.3844 58.8173 78.1875 59.016 77.9578C59.2202 77.7281 59.3858 77.4874 59.5127 77.2358C59.6396 76.9788 59.7389 76.7272 59.8052 76.4701C59.8714 76.2185 59.9045 75.9724 59.9045 75.7426C59.9045 75.3926 59.8328 75.0152 59.6893 74.6214C59.5403 74.2276 59.3195 73.8611 59.016 73.522C58.7125 73.1884 58.3317 72.9095 57.8681 72.6852C57.4046 72.461 56.8527 72.3516 56.2291 72.3516C55.6055 72.3516 55.0702 72.461 54.6232 72.6797C54.1762 72.893 53.8065 73.172 53.5195 73.5056ZM54.3694 77.8812C54.1321 77.6187 53.95 77.3069 53.812 76.9405C53.6741 76.574 53.6078 76.1747 53.6078 75.7372C53.6078 75.2996 53.6741 74.9004 53.812 74.5339C53.95 74.1674 54.1321 73.8557 54.3694 73.5931C54.6012 73.3306 54.8826 73.1282 55.2027 72.9806C55.5228 72.8329 55.8815 72.7618 56.2512 72.7618C56.621 72.7618 56.9741 72.8329 57.3053 72.9806C57.6309 73.1282 57.9233 73.3306 58.1717 73.5931C58.42 73.8557 58.6187 74.1674 58.7622 74.5339C58.9056 74.9004 58.9774 75.2996 58.9774 75.7372C58.9774 76.1747 58.9056 76.574 58.7622 76.9405C58.6187 77.3069 58.42 77.6187 58.1717 77.8812C57.9233 78.1438 57.6364 78.3461 57.3053 78.4938C56.9741 78.6415 56.6265 78.7126 56.2512 78.7126C55.876 78.7126 55.5228 78.6415 55.2027 78.4938C54.8826 78.3461 54.6067 78.1438 54.3694 77.8812ZM48.4691 75.3277H47.1557V72.9868H50.3289V72.4727H46.2948V79.0251H48.4691C48.9713 79.0251 49.3742 78.9704 49.6943 78.8556C50.0143 78.7407 50.2627 78.593 50.4448 78.418C50.6269 78.2375 50.7538 78.0406 50.8256 77.8218C50.8973 77.603 50.9359 77.3843 50.9359 77.1655C50.9359 76.9467 50.8973 76.7279 50.8256 76.5091C50.7538 76.2904 50.6269 76.0935 50.4393 75.9184C50.2516 75.7434 49.9978 75.6012 49.6832 75.4918C49.3632 75.3824 48.9603 75.3277 48.4691 75.3277ZM49.0265 78.5329C48.8444 78.593 48.6513 78.6258 48.4581 78.6258L48.4636 78.6204H47.1668V75.7379H48.4084C48.6513 75.7379 48.872 75.7762 49.0707 75.8528C49.2638 75.9239 49.4349 76.0278 49.5673 76.1591C49.6998 76.2904 49.8046 76.4435 49.8819 76.6295C49.9536 76.8154 49.9923 77.0123 49.9923 77.2256C49.9923 77.4554 49.9481 77.6523 49.8598 77.8273C49.7715 78.0023 49.6612 78.15 49.5177 78.2648C49.3742 78.3797 49.2141 78.4727 49.0265 78.5329ZM63.805 79.0212V72.9829H61.2775V72.4688H67.199V72.9829H64.6659V79.0212H63.805ZM68.8089 79.0212L69.6422 77.0905H69.6478H72.9037L73.8087 79.0212H74.7248L71.6455 72.4688H71.1709L68.373 79.0212H68.8089ZM71.1819 73.5134H71.2205L72.705 76.6693H69.8243L71.1819 73.5134ZM77.7092 79.0212H76.8483V72.4688H77.7092V75.3293H81.666V72.4688H82.5213V79.0212H81.666V75.7614H77.7092V79.0212ZM91.1399 72.4688H90.279L86.3609 78.25V72.4688H85.5V79.0212H86.3609L90.279 73.1688V79.0212H91.1399V72.4688ZM97.6759 72.4688H98.5368V79.0212H97.6759V76.2427C97.4402 76.2747 97.1736 76.303 96.8825 76.3338L96.8822 76.3338L96.7101 76.3521C96.3514 76.3849 96.0258 76.4013 95.7278 76.4013C95.2256 76.4013 94.8283 76.363 94.5358 76.2865C94.2488 76.2099 94.0281 76.106 93.8846 75.9747C93.7411 75.8489 93.6473 75.7067 93.6087 75.5481C93.5701 75.3949 93.548 75.2363 93.548 75.0777V72.4688H94.4089V74.8261C94.4089 74.9683 94.4199 75.1105 94.442 75.2473C94.4641 75.384 94.5303 75.5098 94.6351 75.6192C94.74 75.7286 94.9111 75.8161 95.1428 75.8872C95.3746 75.9583 95.7002 75.9911 96.1141 75.9911H96.1143C96.208 75.9911 96.3184 75.9911 96.4507 75.9802C96.5777 75.9747 96.7156 75.9638 96.8591 75.9473C96.9309 75.9391 97.0012 75.9309 97.0716 75.9227C97.1419 75.9145 97.2123 75.9063 97.284 75.8981C97.4275 75.8817 97.5545 75.8598 97.6759 75.8325V72.4742V72.4688ZM102.371 72.4688H101.51V79.0212H102.371V76.7185L103.436 75.5864L105.947 79.0212H106.929L103.988 75.0011L106.383 72.4688H105.914L102.371 76.1552V72.4688ZM109.471 77.0905L108.637 79.0212H108.201L110.999 72.4688H111.474L114.553 79.0212H113.637L112.732 77.0905H109.476H109.471ZM111.049 73.5134H111.01L109.653 76.6693H112.533L111.049 73.5134ZM122.865 75.3277H121.552V72.9868H124.725V72.4727H120.691V79.0251H122.865C123.367 79.0251 123.77 78.9704 124.09 78.8556C124.41 78.7407 124.659 78.593 124.841 78.418C125.023 78.2375 125.15 78.0406 125.222 77.8218C125.293 77.603 125.332 77.3843 125.332 77.1655C125.332 76.9467 125.293 76.7279 125.222 76.5091C125.15 76.2904 125.023 76.0935 124.835 75.9184C124.648 75.7434 124.394 75.6012 124.079 75.4918C123.759 75.3824 123.356 75.3277 122.865 75.3277ZM123.417 78.5329C123.235 78.593 123.042 78.6258 122.849 78.6258L122.854 78.6204H121.557V75.7379H122.799C123.042 75.7379 123.263 75.7762 123.461 75.8528C123.654 75.9239 123.825 76.0278 123.958 76.1591C124.09 76.2904 124.195 76.4435 124.272 76.6295C124.344 76.8154 124.383 77.0123 124.383 77.2256C124.383 77.4554 124.339 77.6523 124.25 77.8273C124.162 78.0023 124.052 78.15 123.908 78.2648C123.765 78.3797 123.605 78.4727 123.417 78.5329ZM128.15 77.0905L127.317 79.0212H126.881L129.679 72.4688H130.153L133.233 79.0212H132.317L131.411 77.0905H128.156H128.15ZM129.728 73.5134H129.69L128.332 76.6693H131.213L129.728 73.5134ZM143.82 79.0212V72.4688H142.959V78.5016H140.023V72.4688H139.162V78.5016H136.215V72.4688H135.36V79.0212H143.82ZM148.386 79.0212V72.9829H145.858V72.4688H151.779V72.9829H149.246V79.0212H148.386ZM153.393 79.0212L154.227 77.0905H154.232H157.488L158.393 79.0212H159.309L156.23 72.4688H155.755L152.957 79.0212H153.393ZM155.766 73.5134H155.805L157.289 76.6693H154.409L155.766 73.5134ZM167.213 76.1641H164.879V76.8642H167.213V76.1641ZM176.396 77.167V72.4688H175.54V77.1944C175.54 77.3421 175.535 77.5062 175.524 77.6812C175.513 77.8562 175.474 78.0257 175.414 78.1789C175.353 78.332 175.254 78.4633 175.127 78.5672C175 78.6712 174.818 78.7204 174.586 78.7204C174.376 78.7204 174.199 78.6821 174.062 78.6055C173.924 78.529 173.813 78.436 173.736 78.3211C173.659 78.2062 173.603 78.0859 173.57 77.9601C173.537 77.8288 173.521 77.7195 173.521 77.6265H172.687C172.698 78.0859 172.853 78.4524 173.145 78.7258C173.438 78.9939 173.901 79.1306 174.531 79.1306C174.967 79.1306 175.309 79.065 175.557 78.9337C175.805 78.8024 175.993 78.6383 176.114 78.4414C176.236 78.2445 176.313 78.0367 176.346 77.807C176.379 77.5827 176.396 77.3694 176.396 77.167ZM183.637 72.4688V72.9829H180.227V75.3293H183.157V75.7778H180.227V78.5016H183.637V79.0212H179.371V72.4688H183.637ZM188.125 72.4688H185.757L185.763 72.4852V79.0376H188.141C188.566 79.0376 188.919 78.9829 189.212 78.8735C189.504 78.7641 189.736 78.6219 189.913 78.4469C190.095 78.2719 190.222 78.075 190.299 77.8507C190.382 77.632 190.42 77.4077 190.42 77.1834C190.42 76.8279 190.337 76.5435 190.183 76.3302C190.023 76.1169 189.841 75.9583 189.626 75.8434C189.41 75.734 189.19 75.6575 188.963 75.6192C188.737 75.5809 188.555 75.559 188.417 75.5535V75.5153C188.638 75.5153 188.847 75.4715 189.041 75.3895C189.234 75.3019 189.405 75.198 189.554 75.0613C189.703 74.9245 189.819 74.7714 189.907 74.5909C189.995 74.4104 190.039 74.2245 190.039 74.0221C190.039 73.8471 190.001 73.6666 189.924 73.4861C189.846 73.3056 189.73 73.136 189.576 72.9883C189.421 72.8352 189.223 72.7149 188.98 72.6164C188.737 72.518 188.45 72.4688 188.125 72.4688ZM188.285 75.2363C188.113 75.2965 187.937 75.3293 187.749 75.3293L187.744 75.3238H186.612V72.8735H187.766C188.014 72.8735 188.224 72.9063 188.395 72.9774C188.566 73.0485 188.71 73.136 188.82 73.2509C188.93 73.3603 189.013 73.4915 189.063 73.6337C189.112 73.7814 189.14 73.9236 189.14 74.0658C189.14 74.2463 189.101 74.4159 189.03 74.569C188.958 74.7276 188.853 74.8589 188.726 74.9738C188.599 75.0886 188.45 75.1761 188.285 75.2363ZM188.566 78.518C188.384 78.5782 188.196 78.6055 187.992 78.6055V78.611H186.618V75.745H187.661C187.97 75.745 188.24 75.7833 188.467 75.8653C188.693 75.9473 188.881 76.0567 189.03 76.1935C189.179 76.3302 189.289 76.4888 189.361 76.6693C189.432 76.8498 189.471 77.0412 189.471 77.2382C189.471 77.4569 189.432 77.6484 189.355 77.8179C189.272 77.9875 189.168 78.1297 189.035 78.25C188.903 78.3703 188.748 78.4578 188.566 78.518ZM193.38 79.0212H192.519V72.4688H194.727C195.091 72.4688 195.411 72.5234 195.681 72.6274C195.952 72.7313 196.178 72.8735 196.355 73.054C196.537 73.229 196.669 73.4423 196.758 73.683C196.846 73.9236 196.89 74.1752 196.89 74.4378C196.89 74.7003 196.84 74.9683 196.741 75.209C196.642 75.4496 196.493 75.6629 196.294 75.8434C196.095 76.0294 195.847 76.1716 195.555 76.281C195.257 76.3849 194.92 76.4396 194.534 76.4396C194.307 76.4396 194.098 76.4232 193.91 76.3958C193.722 76.3685 193.546 76.3302 193.38 76.2865V79.0212ZM193.38 75.9036C193.513 75.9528 193.662 75.9856 193.822 76.002C193.987 76.0184 194.164 76.0239 194.362 76.0239C194.644 76.0239 194.887 75.9747 195.091 75.8817C195.295 75.7887 195.461 75.6684 195.593 75.5153C195.726 75.3676 195.819 75.198 195.88 75.0121C195.941 74.8261 195.968 74.6456 195.968 74.4651C195.968 74.2846 195.935 74.0877 195.869 73.9018C195.803 73.7103 195.703 73.5408 195.571 73.3876C195.439 73.2345 195.273 73.1087 195.069 73.0157C194.865 72.9227 194.633 72.8735 194.368 72.8735H193.375V75.8981L193.38 75.9036ZM203.572 72.9829V72.4688H199.301V79.0212H203.572V78.5016H200.162V75.7778H203.092V75.3293H200.162V72.9829H203.572ZM209.37 78.0914H209.409L212.466 72.4688H213.117V79.0212H212.256V73.7103H212.218L209.238 79.1306H209.067L206.147 73.672H206.109V79.0212H205.695V72.4688H206.335L209.37 78.0914ZM216.271 73.5056C215.984 73.8393 215.769 74.2057 215.637 74.605V74.6105C215.499 75.0097 215.432 75.3981 215.432 75.7426C215.432 76.0872 215.499 76.4646 215.637 76.8584C215.769 77.2522 215.979 77.6187 216.271 77.9578C216.558 78.2914 216.928 78.5704 217.375 78.7946C217.822 79.0189 218.357 79.1283 218.981 79.1283C219.4 79.1283 219.787 79.079 220.129 78.9751C220.476 78.8712 220.78 78.7345 221.056 78.5594C221.326 78.3844 221.569 78.1875 221.768 77.9578C221.972 77.7281 222.137 77.4874 222.264 77.2358C222.391 76.9788 222.491 76.7217 222.557 76.4701C222.623 76.2185 222.656 75.9724 222.656 75.7426C222.656 75.3926 222.584 75.0152 222.441 74.6214C222.292 74.2276 222.071 73.8611 221.768 73.522C221.464 73.1884 221.083 72.9095 220.62 72.6852C220.156 72.461 219.604 72.3516 218.981 72.3516C218.357 72.3516 217.822 72.461 217.375 72.6797C216.928 72.893 216.558 73.172 216.271 73.5056ZM217.121 77.8812C216.884 77.6187 216.702 77.3069 216.564 76.9405C216.426 76.574 216.36 76.1747 216.36 75.7372C216.36 75.2996 216.426 74.9004 216.564 74.5339C216.702 74.1674 216.884 73.8557 217.121 73.5931C217.353 73.3306 217.634 73.1282 217.954 72.9806C218.274 72.8329 218.633 72.7618 219.003 72.7618C219.373 72.7618 219.726 72.8329 220.057 72.9806C220.383 73.1282 220.675 73.3306 220.923 73.5931C221.172 73.8557 221.37 74.1674 221.514 74.5339C221.657 74.9004 221.729 75.2996 221.729 75.7372C221.729 76.1747 221.657 76.574 221.514 76.9405C221.37 77.3069 221.172 77.6187 220.923 77.8812C220.675 78.1438 220.388 78.3461 220.057 78.4938C219.726 78.6415 219.378 78.7126 219.003 78.7126C218.628 78.7126 218.274 78.6415 217.954 78.4938C217.634 78.3461 217.358 78.1438 217.121 77.8812ZM224.974 72.4688H227.341C227.667 72.4688 227.954 72.518 228.197 72.6164C228.44 72.7149 228.638 72.8352 228.793 72.9883C228.947 73.136 229.063 73.3056 229.141 73.4861C229.218 73.6666 229.256 73.8471 229.256 74.0221C229.256 74.2245 229.212 74.4104 229.124 74.5909C229.036 74.7714 228.92 74.9245 228.771 75.0613C228.622 75.198 228.451 75.3019 228.258 75.3895C228.064 75.4715 227.855 75.5153 227.634 75.5153V75.5535C227.772 75.559 227.954 75.5809 228.18 75.6192C228.407 75.6575 228.627 75.734 228.842 75.8434C229.058 75.9583 229.24 76.1169 229.4 76.3302C229.554 76.5435 229.637 76.8279 229.637 77.1834C229.637 77.4077 229.599 77.632 229.516 77.8507C229.438 78.075 229.312 78.2719 229.129 78.4469C228.953 78.6219 228.721 78.7641 228.429 78.8735C228.136 78.9829 227.783 79.0376 227.358 79.0376H224.979V72.4852L224.974 72.4688ZM226.966 75.3293C227.154 75.3293 227.33 75.2965 227.501 75.2363C227.667 75.1761 227.816 75.0886 227.943 74.9738C228.07 74.8589 228.175 74.7276 228.246 74.569C228.318 74.4159 228.357 74.2463 228.357 74.0658C228.357 73.9236 228.329 73.7814 228.28 73.6337C228.23 73.4915 228.147 73.3603 228.037 73.2509C227.926 73.136 227.783 73.0485 227.612 72.9774C227.441 72.9063 227.231 72.8735 226.983 72.8735H225.829V75.3238H226.961L226.966 75.3293ZM227.209 78.6055C227.413 78.6055 227.601 78.5782 227.783 78.518C227.965 78.4578 228.12 78.3703 228.252 78.25C228.384 78.1297 228.489 77.9875 228.572 77.8179C228.649 77.6484 228.688 77.4569 228.688 77.2382C228.688 77.0412 228.649 76.8498 228.578 76.6693C228.506 76.4888 228.395 76.3302 228.246 76.1935C228.097 76.0567 227.91 75.9473 227.684 75.8653C227.457 75.7833 227.187 75.745 226.878 75.745H225.835V78.611H227.209V78.6055ZM231.314 79.0212L232.147 77.0905H232.152H235.408L236.313 79.0212H237.23L234.15 72.4688H233.676L230.878 79.0212H231.314ZM233.687 73.5134H233.725L235.21 76.6693H232.329L233.687 73.5134ZM245.808 78.5016V80.0002H245.008V79.0212H239.357V72.4688H240.218V78.5016H244.147V72.4688H245.008V78.5016H245.808Z" fill="black" style="fill:black;fill-opacity:1;"/>
</svg>