<svg xmlns:xlink="http://www.w3.org/1999/xlink" xmlns="http://www.w3.org/2000/svg" width="251" height="68" viewBox="0 0 251 68" fill="none">
<path fill-rule="evenodd" clip-rule="evenodd" d="M236.011 14.7972H234.252V1.76561H162.473V0H235.99V0.0950709H236.011V14.7972ZM244.894 0.0351562C241.628 0.0351562 239 2.65641 239 5.9092C239 9.162 241.621 11.8036 244.894 11.8036C248.168 11.8036 250.769 9.17558 250.769 5.9092C250.769 2.64283 248.127 0.0351562 244.894 0.0351562ZM244.894 10.7035C242.239 10.7035 240.1 8.56441 240.1 5.9092C240.1 3.254 242.239 1.12848 244.894 1.12848C247.55 1.12848 249.668 3.26758 249.668 5.9092C249.668 8.55083 247.523 10.7035 244.894 10.7035ZM248.006 4.72138C248.006 4.06267 247.823 3.45829 247.259 3.07121C246.77 2.77921 246.084 2.76562 245.534 2.76562H242.465V9.11503H243.708V6.42587H244.957L246.376 9.11503H247.809L246.268 6.42587C247.395 6.34438 248.013 5.87581 248.013 4.71459L248.006 4.72138ZM245.582 5.48874H243.708V3.68917H245.242C245.853 3.68917 246.757 3.68917 246.757 4.54482C246.757 5.33934 246.261 5.50911 245.582 5.48874ZM188.16 38.2455H194.407H194.414C192.513 45.0635 186.252 50.0683 178.829 50.0683C169.899 50.0683 162.66 42.8293 162.66 33.8994C162.66 24.9695 169.892 17.7305 178.829 17.7305C187.766 17.7305 195.005 24.9695 195.005 33.8994C195.005 34.4019 194.985 34.8908 194.944 35.3798H168.656C169.376 40.3642 173.648 44.1942 178.829 44.1942C182.958 44.1942 186.523 41.7563 188.16 38.2455ZM188.078 29.4039C186.408 25.9755 182.899 23.6058 178.833 23.6045C174.766 23.6058 171.257 25.9755 169.587 29.4039H188.078ZM115.438 67.713V65.9542H46.6328V26.4453H44.8672V65.9542V67.713H46.6328H115.438ZM203.623 17.7246H235.968V23.6054H203.623V50.0692H197.742V23.6054V17.7246H203.623ZM150.732 33.6679C150.732 24.7312 143.492 17.4922 134.563 17.4922C130.651 17.4922 127.065 18.8843 124.268 21.2V17.7299H118.387V67.717H124.268V46.1426C127.065 48.4583 130.651 49.8504 134.563 49.8504C143.492 49.8504 150.732 42.6046 150.732 33.6815V33.6679ZM134.563 43.956C128.879 43.956 124.268 39.3518 124.268 33.6679C124.268 27.984 128.879 23.373 134.563 23.373C140.246 23.373 144.851 27.9772 144.851 33.6679C144.851 39.3586 140.24 43.956 134.563 43.956ZM134.746 67.6758H136.383V58.8613H134.746V67.6758ZM141.052 58.8613L144.726 65.299V58.8613H146.363V67.6758H144.55L140.849 61.2585V67.6758H139.219V58.8613H141.052ZM151.709 67.6758V60.4436H153.352V58.8613H148.449V60.4436H150.072V67.6758H151.709ZM160.054 58.8613V60.4436H156.95V62.474H159.925V64.0563H156.95V66.0867H160.054V67.6758H155.32V58.8613H160.054ZM167.797 63.5674C168.225 63.092 168.524 62.2907 168.524 61.6523C168.524 60.8307 168.13 60.009 167.498 59.4793C166.826 58.9157 166.045 58.8749 165.21 58.8613H162.656V67.6758H164.286V64.3008L166.602 67.6758H168.619L166.235 64.423C166.826 64.294 167.369 64.0427 167.797 63.5742V63.5674ZM164.286 63.058V60.4436H165.196C165.651 60.43 166.031 60.4572 166.412 60.7424C166.724 60.9665 166.887 61.3468 166.887 61.7338C166.887 62.1209 166.744 62.4333 166.486 62.6913C166.16 62.9969 165.617 63.058 165.189 63.058H164.293H164.286ZM172.54 58.8613L176.213 65.299V58.8613H177.843V67.6758H176.03L172.336 61.2585V67.6758H170.699V58.8613H172.54ZM183.611 58.8613L179.938 67.6758H181.737L182.715 65.3941H185.839L186.796 67.6758H188.596L184.888 58.8613H183.611ZM183.313 63.805L184.256 61.1362L185.194 63.805H183.313ZM192.287 60.4436V67.6758H190.65V60.4436H189.027V58.8613H193.93V60.4436H192.287ZM197.535 67.6758V58.8613H195.898V67.6758H197.535ZM199.91 63.3111C199.91 60.7442 201.961 58.6934 204.508 58.6934C207.047 58.6934 209.098 60.7578 209.098 63.3111C209.098 65.8644 207.02 67.8881 204.508 67.8881C201.995 67.8881 199.91 65.878 199.91 63.3111ZM201.547 63.2772C201.547 64.9137 202.898 66.3059 204.508 66.3059C206.117 66.3059 207.468 64.9409 207.468 63.2772C207.468 61.6134 206.158 60.2824 204.508 60.2824C202.857 60.2824 201.547 61.6406 201.547 63.2772ZM217.038 65.299L213.357 58.8613H211.523V67.6758H213.16V61.2585L216.854 67.6758H218.667V58.8613H217.038V65.299ZM229.409 67.6758H227.61L226.659 65.3941H223.535L222.557 67.6758H220.758L224.425 58.8613H225.702L229.409 67.6758ZM225.077 61.1362L224.133 63.805H226.014L225.077 61.1362ZM231.441 58.8613V67.6758H235.774V66.0867H233.078V58.8613H231.441ZM114.78 38.3745C112.844 45.1246 106.617 50.0683 99.2354 50.0683C90.3055 50.0683 83.0664 42.8293 83.0664 33.8994C83.0664 24.9695 90.2987 17.7305 99.2354 17.7305C108.172 17.7305 115.411 24.9695 115.411 33.8994C115.411 34.4019 115.391 34.8908 115.343 35.3798H89.0627C89.7826 40.3642 94.054 44.1942 99.2354 44.1942C103.317 44.1942 106.841 41.8175 108.505 38.3745H114.78ZM108.485 29.4039C106.814 25.9755 103.305 23.6058 99.2388 23.6045C95.1658 23.6058 91.6632 25.9755 89.9931 29.4039H108.485ZM153.759 49.9871H159.64V20.7323H165.433V14.8515H159.64V0H153.759V14.8515H150.73V20.7323H153.759V49.9871ZM60.2291 50.0964V44.1884L75.7394 23.6054H44.875V17.7246H78.3946H83.1007H83.1347V23.6054H83.1075L67.5429 44.2563H83.06V50.0964H60.2359H60.2291ZM0.769531 23.6054H34.5812L38.9952 17.7246H0.769531V23.6054ZM0.769531 26.5527H32.2315L27.8243 32.4336H0.769531V26.5527ZM25.4679 35.373H0.769531V41.2471H21.0131L25.4679 35.373ZM38.9913 50.0267H14.293L18.7817 44.1934H38.9913V50.0267ZM7.53125 58.9576H38.9933V53.0156H11.9385L7.53125 58.9576ZM38.9952 67.7129H0.769531L5.17679 61.832H38.9952V67.7129Z" fill="black" style="fill:black;fill-opacity:1;"/>
</svg>