<svg xmlns:xlink="http://www.w3.org/1999/xlink" xmlns="http://www.w3.org/2000/svg" width="157" height="80" viewBox="0 0 157 80" fill="none">
<mask id="mask0_725_1008" style="mask-type:luminance" maskUnits="userSpaceOnUse" x="66" y="0" width="25" height="38">
<path d="M69.2004 29.0161V28.4442H73.8139V29.0161C73.8139 31.0776 74.565 33.0681 75.9295 34.6242L76.1251 34.8459L75.8273 34.8814C75.5784 34.9124 75.3473 34.9257 75.1161 34.9257C71.8494 34.9257 69.1915 32.2746 69.1915 29.0161M78.6407 33.6134C77.2362 32.4829 76.4317 30.8071 76.4317 29.0161V28.4442H81.0452V29.0161C81.0452 30.8071 80.2407 32.4829 78.8363 33.6134L78.7385 33.6932L78.6407 33.6134ZM81.6452 34.8814L81.3474 34.8459L81.543 34.6242C82.9075 33.0681 83.6631 31.0776 83.6631 29.0161V28.4442H88.2765V29.0161C88.2765 32.2746 85.6187 34.9257 82.3519 34.9257C82.1208 34.9257 81.8897 34.9124 81.6408 34.8814M66.5781 25.833V29.0161C66.5781 33.7154 70.4093 37.5369 75.1206 37.5369C76.3562 37.5369 77.5518 37.2754 78.6718 36.7611L78.7385 36.7301L78.8051 36.7611C79.9252 37.2754 81.1208 37.5369 82.3564 37.5369C87.0676 37.5369 90.8988 33.7154 90.8988 29.0161V25.833H66.5826H66.5781ZM66.5781 23.7138H90.8944V21.1026H66.5781V23.7138ZM76.4317 15.8004C76.4317 14.0093 77.2362 12.3335 78.6407 11.203L78.7385 11.1232L78.8363 11.203C80.2407 12.3335 81.0452 14.0093 81.0452 15.8004V16.3722H76.4317V15.8004ZM69.2004 15.8004C69.2004 12.5419 71.8583 9.89074 75.125 9.89074C75.3517 9.89074 75.5917 9.90404 75.8362 9.93507L76.134 9.97054L75.9384 10.1922C74.5739 11.7483 73.8228 13.7389 73.8228 15.8004V16.3722H69.2093V15.8004H69.2004ZM83.6631 15.8004C83.6631 13.7389 82.9119 11.7483 81.543 10.1922L81.3474 9.97054L81.6452 9.93507C81.8897 9.90404 82.1252 9.89074 82.3564 9.89074C85.6231 9.89074 88.281 12.5419 88.281 15.8004V16.3722H83.6675V15.8004H83.6631ZM77.4407 0L77.6762 3.16982L74.4984 2.93486V5.52392L77.6851 5.28895L77.4095 7.58541L77.2362 7.54108C76.5473 7.36818 75.8362 7.27508 75.125 7.27508C70.4138 7.27508 66.5826 11.0966 66.5826 15.7959V18.979H90.8988V15.7959C90.8988 11.0966 87.0676 7.27508 82.3564 7.27508C81.6452 7.27508 80.9341 7.36375 80.2452 7.54108L80.0718 7.58541L79.7963 5.28895L82.983 5.52392V2.93486L79.8052 3.16982L80.0363 0H77.4407Z" fill="white" style="fill:white;fill-opacity:1;"/>
</mask>
<g mask="url(#mask0_725_1008)">
<path d="M78.737 -12.1293L47.7617 18.7676L78.737 49.6645L109.712 18.7676L78.737 -12.1293Z" fill="black" style="fill:black;fill-opacity:1;"/>
</g>
<mask id="mask1_725_1008" style="mask-type:luminance" maskUnits="userSpaceOnUse" x="0" y="48" width="157" height="22">
<path d="M0.230469 48.4694L0.986046 49.365V61.8182L0.230469 62.7137H18.3288V59.2468L17.4443 59.9872H4.61726V56.6844H16.6976V54.082H4.61726V51.1871H17.0265L17.9199 51.9363V48.4606H0.230469V48.4694ZM41.2094 48.4694L33.9825 58.0587L26.7601 48.4694H22.3689L23.1245 49.365V61.8182L22.3689 62.7137H26.7601V54.5697L26.6979 52.5126L33.0447 61.0601H34.9026L41.2672 52.5126L41.2539 52.987L41.205 54.5697V62.7137H45.5962L44.8406 61.8182V49.365L45.5962 48.4694H41.205H41.2094ZM53.7209 51.1826H61.5567C63.21 51.1826 64.3745 51.8698 64.3745 53.4968C64.3745 55.1238 63.21 55.8332 61.5567 55.8332H53.7209V51.1826ZM49.3563 48.4694L50.1119 49.365V61.8182L49.3563 62.7137H54.472L53.7164 61.8182V58.5419H61.7611C65.0457 58.5419 68.0413 57.2607 68.0413 53.4924C68.0413 49.7241 65.0457 48.465 61.7611 48.465H49.3563V48.4694ZM71.0058 48.4694L71.7614 49.365V61.8182L71.0058 62.7137H89.1041V59.2468L88.2196 59.9872H75.3926V56.6844H87.473V54.082H75.3926V51.1871H87.8019L88.6997 51.9363V48.4606H71.0103L71.0058 48.4694ZM97.4288 51.1826H105.798C107.145 51.1826 108.082 51.7678 108.082 53.0491C108.082 54.3303 107.145 54.9155 105.798 54.9155H97.4288V51.1826ZM92.9309 48.4694L93.6865 49.365V61.8182L92.9309 62.7137H98.1844L97.4288 61.8182V57.6242H103.162C103.162 57.6242 106.891 66.5396 116.82 68.7253C122.31 69.9356 127.599 68.3839 127.599 68.3839V67.6081C127.599 67.6081 123.23 68.1489 120.154 67.7056C110.763 66.3446 106.994 57.5001 106.994 57.5001C109.091 57.2829 111.758 56.1346 111.758 53.0446C111.758 49.6265 109.171 48.465 106.109 48.465H92.9353L92.9309 48.4694ZM129.661 48.4694L130.412 49.365V57.1543C130.412 59.801 128.065 60.3108 124.901 60.3108C121.736 60.3108 119.389 59.801 119.389 57.1543V49.3605L120.141 48.4694H115.025L115.78 49.365V57.0169C115.78 61.2285 119.185 63.024 124.901 63.024C130.616 63.024 134.021 61.233 134.021 57.0169V49.365L134.777 48.4694H129.661ZM138.723 52.8052C138.723 56.7154 142.643 57.0435 147.666 57.4425C151.048 57.7129 153.026 57.7173 153.026 58.737C153.026 60.4261 148.604 60.599 147.661 60.599C145.035 60.599 142.666 60.169 139.99 59.2025L139.372 58.2449L138.328 61.6852C141.203 62.6428 144.479 63.0285 147.11 63.0285C150.661 63.0285 156.23 62.297 156.23 58.307C156.23 54.8268 153.217 54.3303 147.848 53.8471C144.999 53.5899 141.71 53.7584 141.71 52.3752C141.71 50.7659 145.932 50.6152 146.666 50.6152C149.021 50.6152 151.613 50.9654 153.586 51.6082L154.226 52.4816L155.013 49.0014C152.484 48.4517 149.417 48.168 147.172 48.168C143.581 48.168 138.723 48.8995 138.723 52.8097" fill="white" style="fill:white;fill-opacity:1;"/>
</mask>
<g mask="url(#mask1_725_1008)">
<path d="M78.2282 -29.6379L-10.6875 59.0527L78.2282 147.743L167.144 59.0527L78.2282 -29.6379Z" fill="black" style="fill:black;fill-opacity:1;"/>
</g>
<mask id="mask2_725_1008" style="mask-type:luminance" maskUnits="userSpaceOnUse" x="31" y="74" width="96" height="7">
<path d="M32.6761 75.6965H33.8983C34.2672 75.6965 34.5917 75.7675 34.8717 75.9093C35.1517 76.0512 35.3695 76.2507 35.5206 76.5123C35.6717 76.7738 35.7473 77.0753 35.7473 77.4211C35.7473 77.7669 35.6717 78.0684 35.5206 78.3299C35.3695 78.5915 35.1517 78.791 34.8717 78.9329C34.5917 79.0747 34.2672 79.1456 33.8983 79.1456H32.6761V75.701V75.6965ZM31.7383 74.9074V79.9303H33.9383C34.4761 79.9303 34.9517 79.8284 35.3695 79.62C35.7873 79.4117 36.1117 79.1191 36.3429 78.7378C36.574 78.3565 36.6895 77.9176 36.6895 77.4211C36.6895 76.9246 36.574 76.4857 36.3429 76.1044C36.1117 75.7231 35.7873 75.4305 35.3695 75.2222C34.9517 75.0138 34.4761 74.9118 33.9383 74.9118H31.7383V74.9074ZM42.4453 74.9074V79.9303H46.2231V79.1501H43.3831V77.7669H45.8142V76.9999H43.3831V75.6921H46.1254V74.9118H42.4497L42.4453 74.9074ZM60.5969 74.9074V75.6965H62.268V79.9303H63.2014V75.6965H64.8726V74.9074H60.5969ZM70.3394 79.9303H71.2727V74.9074H70.3394V79.9303ZM77.3974 74.9074V79.9303H80.9664V79.1412H78.3352V74.9074H77.4018H77.3974ZM86.4687 74.9074V79.9303H90.2466V79.1501H87.4065V77.7669H89.8377V76.9999H87.4065V75.6921H90.1488V74.9118H86.4732L86.4687 74.9074ZM96.989 75.6965H98.0824C98.4913 75.6965 98.798 75.7808 99.0113 75.9537C99.2202 76.1266 99.3269 76.3704 99.3269 76.694C99.3269 77.0177 99.2202 77.2615 99.0113 77.4388C98.798 77.6117 98.4913 77.7004 98.0824 77.7004H96.989V75.6965ZM96.0557 74.9074V79.9303H96.989V78.4674H98.1268C98.2113 78.4674 98.2779 78.4674 98.3224 78.4585L99.3491 79.9303H100.358L99.198 78.2812C99.5447 78.1482 99.8069 77.9442 99.9936 77.6694C100.176 77.3945 100.269 77.0709 100.269 76.694C100.269 76.3172 100.185 76.0069 100.011 75.7409C99.838 75.4749 99.5891 75.2665 99.2646 75.1246C98.9402 74.9828 98.5624 74.9074 98.1224 74.9074H96.0512H96.0557ZM106.078 79.9303H107.012V74.9074H106.078V79.9303ZM112.887 74.9074V75.6877H114.678V78.2856C114.678 78.9018 114.416 79.2122 113.896 79.2122C113.509 79.2122 113.176 79.0215 112.896 78.6358L112.363 79.2742C112.536 79.5048 112.758 79.6821 113.029 79.8106C113.301 79.9392 113.598 80.0013 113.918 80.0013C114.474 80.0013 114.896 79.855 115.185 79.558C115.474 79.2654 115.616 78.822 115.616 78.2324V74.903H112.887V74.9074ZM123.59 75.8428L124.541 78.0373H122.648L123.59 75.8428ZM123.136 74.9074L120.87 79.9303H121.834L122.332 78.7688H124.852L125.354 79.9303H126.332L124.056 74.9074H123.136ZM52.6233 75.036C52.3166 75.169 52.09 75.3507 51.9389 75.5768C51.7877 75.8029 51.7122 76.0556 51.7122 76.3349C51.7122 76.663 51.7966 76.929 51.9655 77.1196C52.1344 77.3147 52.3389 77.4566 52.5789 77.5452C52.8144 77.6383 53.1256 77.727 53.5122 77.8201C53.7878 77.8866 54.0011 77.9487 54.1611 77.9974C54.3211 78.0462 54.45 78.1216 54.5523 78.2147C54.6545 78.3078 54.7078 78.4275 54.7078 78.5693C54.7078 78.7644 54.6145 78.924 54.4323 79.0437C54.2456 79.1634 53.97 79.221 53.5922 79.221C53.29 79.221 52.9878 79.1678 52.69 79.0659C52.3922 78.9639 52.1389 78.8309 51.93 78.6669L51.6055 79.3939C51.8144 79.5757 52.1033 79.722 52.4633 79.8328C52.8233 79.9436 53.2011 79.9968 53.5878 79.9968C54.0278 79.9968 54.4011 79.9303 54.7123 79.7973C55.0189 79.6643 55.2501 79.4826 55.4012 79.2609C55.5523 79.0348 55.6279 78.7865 55.6279 78.5073C55.6279 78.1836 55.5434 77.9221 55.3745 77.7314C55.2056 77.5408 54.9967 77.3989 54.7612 77.3058C54.5211 77.2127 54.2145 77.1241 53.8411 77.0354C53.57 76.9689 53.3522 76.9068 53.1922 76.8581C53.0322 76.8049 52.9033 76.7339 52.8011 76.6408C52.6989 76.5522 52.6455 76.4325 52.6455 76.2906C52.6455 76.0867 52.7344 75.9182 52.9167 75.7941C53.0944 75.6699 53.37 75.6079 53.7389 75.6079C53.9656 75.6079 54.1967 75.6433 54.4367 75.7098C54.6767 75.7763 54.9078 75.8739 55.1256 76.0024L55.419 75.2754C55.2012 75.1335 54.9478 75.0227 54.65 74.9473C54.3523 74.8719 54.05 74.832 53.7434 74.832C53.3033 74.832 52.93 74.8985 52.6233 75.0315" fill="white" style="fill:white;fill-opacity:1;"/>
</mask>
<g mask="url(#mask2_725_1008)">
<path d="M126.328 74.8359H31.7383V80.0008H126.328V74.8359Z" fill="black" style="fill:black;fill-opacity:1;"/>
</g>
</svg>