<svg xmlns:xlink="http://www.w3.org/1999/xlink" width="1536" height="1738" viewBox="0 0 1094 1238" fill="none" xmlns="http://www.w3.org/2000/svg">
<path fill-rule="evenodd" clip-rule="evenodd" d="M627.319 572.096L1052.83 817.754H1052.74C1091.29 839.989 1104.56 889.389 1082.23 927.941C1060 966.494 1010.6 979.763 972.047 957.438L546.539 711.78L121.031 957.438C82.4786 979.763 33.1677 966.494 10.8433 927.941C-11.4811 889.389 1.78804 840.078 40.3402 817.754L465.938 572.006V80.6906C465.938 36.1314 502.07 0 546.629 0C591.188 0 627.319 36.1314 627.319 80.6906V572.096ZM465.852 887.597C465.852 843.038 501.983 806.906 546.542 806.906C591.101 806.906 627.233 843.038 627.233 887.597V1156.57C627.233 1201.12 591.101 1237.26 546.542 1237.26C501.983 1237.26 465.852 1201.12 465.852 1156.57V887.597ZM10.8433 309.313C-11.4811 347.865 1.78804 397.266 40.3402 419.5L273.267 553.985C311.819 576.309 361.22 563.04 383.454 524.488C405.689 485.936 392.51 436.535 353.958 414.3L121.031 279.816C82.4786 257.492 33.0781 270.761 10.8433 309.313ZM819.812 553.985C781.26 576.309 731.949 563.04 709.625 524.488C687.3 485.936 700.569 436.625 739.121 414.3L972.048 279.816C1010.6 257.492 1059.91 270.761 1082.24 309.313C1104.56 347.865 1091.29 397.176 1052.74 419.5L819.812 553.985Z" fill="#FFFFFF" style="fill-opacity: 1;"></path>
</svg>