<svg xmlns:xlink="http://www.w3.org/1999/xlink" xmlns="http://www.w3.org/2000/svg" width="74" height="74" viewBox="0 0 74 74" fill="none">
<path d="M4.66932 73.6008L0.767578 70.3503L21.2678 11.6482L27.1913 8.60406L4.66932 73.6008ZM71.9004 0.632648V46.7069L73.7676 45.417V2.56746L71.9004 0.632648ZM62.8092 1.1099C62.0752 3.32848 61.0708 8.1784 51.8122 12.8735V21.7092C52.7136 21.4254 56.7699 20.0194 60.3626 16.511L61.5601 15.3372V46.5134L70.4968 47.21V0.000610352L62.8221 1.1099H62.8092ZM60.1437 18.6264C57.5682 20.8063 54.9671 22.0445 53.4218 22.6508L55.9715 22.9603C55.9715 22.9603 58.1606 22.3541 60.1437 21.1287V18.6264ZM40.21 46.5908L35.1879 29.1388L33.5525 34.8272L36.8104 46.5908H40.2229H40.21ZM21.5511 72.3754L6.03429 74.0006L28.8009 8.26869L41.6651 10.7066L41.884 10.7453L59.0234 68.4026L48.065 69.6021L44.5496 57.3484L25.5688 58.1997L21.5383 72.3883L21.5511 72.3754ZM28.2858 48.0097H42.09L35.8575 26.3914L34.5312 26.2624L28.2858 48.0097ZM43.5065 58.8059L39.9138 58.9607L42.515 67.964L46.5455 69.3829L43.5065 58.8059Z" fill="black"/>
</svg>