<svg width="1823" height="2074" viewBox="0 0 1823 2074" fill="none" xmlns="http://www.w3.org/2000/svg">
<path d="M1027.01 960.905V157.255C1027.01 84.3825 967.856 25.2927 894.906 25.2927C821.955 25.2927 762.804 84.3825 762.804 157.255V960.758L66.0427 1362.65C2.92727 1399.17 -18.7961 1479.81 17.752 1542.85C54.3001 1605.9 135.029 1627.6 198.144 1591.1L894.759 1189.34L1591.38 1591.1C1654.49 1627.6 1735.36 1605.9 1771.77 1542.85C1808.31 1479.81 1786.59 1399.02 1723.48 1362.65L1027.01 960.905Z" fill="url(#paint0_linear_1247_2)"/>
<path d="M17.752 531.121C-18.7961 594.171 2.92726 674.96 66.0427 711.321L447.376 931.261C510.491 967.769 591.366 946.068 627.77 883.018C664.17 819.968 642.592 739.179 579.476 702.818L198.144 482.881C135.029 446.372 54.1532 468.072 17.752 531.121Z" fill="url(#paint1_linear_1247_2)"/>
<path d="M1161.68 883.018C1198.22 946.068 1278.95 967.769 1342.07 931.261L1723.4 711.321C1786.51 674.814 1808.24 594.171 1771.69 531.121C1735.15 468.072 1654.41 446.372 1591.3 482.881L1209.97 702.818C1146.85 739.325 1125.13 819.968 1161.68 883.018Z" fill="url(#paint2_linear_1247_2)"/>
<defs>
<linearGradient id="paint0_linear_1247_2" x1="894.76" y1="25.2927" x2="894.76" y2="1608.83" gradientUnits="userSpaceOnUse">
<stop stop-color="#F2F3F5"/>
<stop offset="1" stop-color="#F2E1F6"/>
</linearGradient>
<linearGradient id="paint1_linear_1247_2" x1="322.728" y1="465.148" x2="322.728" y2="948.993" gradientUnits="userSpaceOnUse">
<stop stop-color="#F2F3F5"/>
<stop offset="1" stop-color="#F2E1F6"/>
</linearGradient>
<linearGradient id="paint2_linear_1247_2" x1="1466.68" y1="465.148" x2="1466.68" y2="948.993" gradientUnits="userSpaceOnUse">
<stop stop-color="#F2F3F5"/>
<stop offset="1" stop-color="#F2E1F6"/>
</linearGradient>
</defs>
</svg>
